<svg width="144" height="125" viewBox="0 0 144 125" fill="none" xmlns="http://www.w3.org/2000/svg">
<path fill-rule="evenodd" clip-rule="evenodd" d="M120.512 46.8482C120.512 58.7709 109.3 68.4362 95.4699 68.4362C81.6395 68.4362 70.4277 58.7709 70.4277 46.8482C70.4277 34.9254 81.6395 25.2601 95.4699 25.2601C109.3 25.2601 120.512 34.9254 120.512 46.8482Z" stroke="#231815" stroke-width="8"/>
<g clip-path="url(#clip0_862_13996)">
<line x1="137.449" y1="48.4375" x2="130.894" y2="48.4375" stroke="#F25022" stroke-width="7.10417" stroke-linecap="round" stroke-linejoin="round"/>
</g>
<g clip-path="url(#clip1_862_13996)">
<line x1="60.0456" y1="48.4375" x2="53.4904" y2="48.4375" stroke="#F25022" stroke-width="7.10417" stroke-linecap="round" stroke-linejoin="round"/>
</g>
<g clip-path="url(#clip2_862_13996)">
<line x1="137.001" y1="48.8854" x2="131.342" y2="48.8854" stroke="#231815" stroke-width="8" stroke-linecap="round" stroke-linejoin="round"/>
</g>
<g clip-path="url(#clip3_862_13996)">
<line x1="60.0456" y1="48.4375" x2="53.4904" y2="48.4375" stroke="#231815" stroke-width="7.10417" stroke-linecap="round" stroke-linejoin="round"/>
</g>
<g clip-path="url(#clip4_862_13996)">
<line x1="4" y1="-4" x2="9.21357" y2="-4" transform="matrix(-0.895244 -0.445577 0.556459 -0.830875 136.037 64.7742)" stroke="#231815" stroke-width="8" stroke-linecap="round" stroke-linejoin="round"/>
</g>
<g clip-path="url(#clip5_862_13996)">
<line x1="3.55208" y1="-3.55208" x2="9.66149" y2="-3.55208" transform="matrix(-0.895244 -0.445577 0.556459 -0.830875 69.0059 31.4107)" stroke="#231815" stroke-width="7.10417" stroke-linecap="round" stroke-linejoin="round"/>
</g>
<g clip-path="url(#clip6_862_13996)">
<line x1="4" y1="-4" x2="8.27348" y2="-4" transform="matrix(-0.556459 -0.830875 0.895244 -0.445577 81.5078 22.0722)" stroke="#231815" stroke-width="8" stroke-linecap="round" stroke-linejoin="round"/>
</g>
<g clip-path="url(#clip7_862_13996)">
<line x1="94.196" y1="82.5472" x2="94.196" y2="77.876" stroke="#231815" stroke-width="7.10417" stroke-linecap="round" stroke-linejoin="round"/>
</g>
<g clip-path="url(#clip8_862_13996)">
<line x1="93.748" y1="15.3724" x2="93.748" y2="11.5971" stroke="#231815" stroke-width="8" stroke-linecap="round" stroke-linejoin="round"/>
</g>
<g clip-path="url(#clip9_862_13996)">
<line x1="3.55208" y1="-3.55208" x2="8.72139" y2="-3.55208" transform="matrix(0.556459 -0.830875 0.895244 0.445577 74.6768 81.8217)" stroke="#231815" stroke-width="7.10417" stroke-linecap="round" stroke-linejoin="round"/>
</g>
<g clip-path="url(#clip10_862_13996)">
<line x1="4" y1="-4" x2="8.27348" y2="-4" transform="matrix(0.556459 -0.830875 0.895244 0.445577 113.379 24.0347)" stroke="#231815" stroke-width="8" stroke-linecap="round" stroke-linejoin="round"/>
</g>
<g clip-path="url(#clip11_862_13996)">
<line x1="3.55208" y1="-3.55208" x2="9.66149" y2="-3.55208" transform="matrix(0.895244 -0.445577 0.556459 0.830875 57.1768 68.1732)" stroke="#231815" stroke-width="7.10417" stroke-linecap="round" stroke-linejoin="round"/>
</g>
<g clip-path="url(#clip12_862_13996)">
<line x1="4" y1="-4" x2="9.21357" y2="-4" transform="matrix(0.895244 -0.445577 0.556459 0.830875 124.209 34.8098)" stroke="#231815" stroke-width="8" stroke-linecap="round" stroke-linejoin="round"/>
</g>
<path d="M118.234 46.8481C118.234 57.6869 108.042 66.4736 95.4688 66.4736C82.8956 66.4736 72.7031 57.6869 72.7031 46.8481C72.7031 36.0092 82.8956 27.2225 95.4688 27.2225C108.042 27.2225 118.234 36.0092 118.234 46.8481Z" fill="#FFB900"/>
<path fill-rule="evenodd" clip-rule="evenodd" d="M65.6802 37.4737C65.6802 37.4737 66.0862 39.2512 66.2248 39.2683C73.7016 40.1874 79.3115 43.9471 79.3115 50.6467C79.3115 57.9892 72.4069 63.9414 63.8897 63.9414H24.2334C15.7161 63.9414 8.81152 57.9892 8.81152 50.6467C8.81152 43.9471 14.56 38.405 22.0368 37.4858C22.1754 37.4688 22.3111 37.4652 22.4428 37.4737C24.4292 28.744 33.3532 22.158 44.0615 22.158C54.7699 22.158 63.6938 28.744 65.6802 37.4737Z" fill="#F25022"/>
<path d="M25.3998 63.9414C16.2383 63.9414 8.81152 57.7057 8.81152 50.0136C8.81152 43.2949 14.4776 37.6874 22.0166 36.3757C24.6083 28.1897 33.496 22.158 44.0615 22.158C56.0058 22.158 65.8057 29.8665 66.7892 39.6816C73.8627 40.4969 79.3115 45.5915 79.3115 51.7546C79.3115 58.4852 72.8131 63.9414 64.7968 63.9414H25.3998Z" stroke="#231815" stroke-width="8" stroke-linecap="round" stroke-linejoin="round"/>
<path fill-rule="evenodd" clip-rule="evenodd" d="M99.324 53.3413C99.324 53.3413 99.8653 55.7114 100.05 55.7341C110.019 56.9596 117.499 61.9725 117.499 70.9053C117.499 80.6953 108.293 88.6316 96.9365 88.6316H44.0615C32.7052 88.6316 23.499 80.6953 23.499 70.9053C23.499 61.9725 31.1636 54.583 41.1327 53.3575C41.3175 53.3348 41.4984 53.3299 41.6741 53.3413C44.3226 41.7018 56.2212 32.9204 70.499 32.9204C84.7768 32.9204 96.6754 41.7018 99.324 53.3413Z" fill="#00A4EF"/>
<path d="M96.9365 88.6316H98.1461C108.834 88.6316 117.499 81.3566 117.499 72.3825C117.499 64.1651 110.234 57.3723 100.803 56.2852C99.4912 43.1984 86.4247 32.9204 70.499 32.9204C56.4116 32.9204 44.5614 40.9627 41.1057 51.8773C31.0538 53.6262 23.499 61.103 23.499 70.0612C23.499 79.8784 32.5719 87.9163 44.0615 88.5864" stroke="#231815" stroke-width="8" stroke-linecap="round" stroke-linejoin="round"/>
<ellipse cx="70.5002" cy="88.4012" rx="37.8136" ry="32.5979" fill="#F3F3F3" stroke="#231815" stroke-width="8"/>
<path d="M49.9385 75.9696H83.3242C84.5 75.9696 85.6096 76.5142 86.329 77.4444V77.4444C87.3872 78.8128 87.3872 80.7234 86.329 82.0918V82.0918C85.6096 83.022 84.5 83.5666 83.3242 83.5666H60.6153C59.4394 83.5666 58.3298 84.1112 57.6105 85.0414V85.0414C56.5522 86.4098 56.5522 88.3204 57.6105 89.6888V89.6888C58.3298 90.619 59.4394 91.1636 60.6153 91.1636H77.4492C78.625 91.1636 79.7346 91.7082 80.454 92.6383V92.6383C81.5122 94.0068 81.5122 95.9174 80.454 97.2858V97.2858C79.7346 98.216 78.625 98.7605 77.4492 98.7605H66.4903C65.3144 98.7605 64.2048 99.3051 63.4855 100.235V100.235C62.4272 101.604 62.4272 103.514 63.4855 104.883V104.883C64.2048 105.813 65.3144 106.358 66.4903 106.358H73.4385" stroke="#231815" stroke-width="6" stroke-linecap="round" stroke-linejoin="round"/>
<defs>
<clipPath id="clip0_862_13996">
<rect x="125.065" y="42.9229" width="18.2125" height="7.85022" rx="3.92511" fill="white"/>
</clipPath>
<clipPath id="clip1_862_13996">
<rect x="47.6621" y="42.9229" width="18.2125" height="7.85022" rx="3.92511" fill="white"/>
</clipPath>
<clipPath id="clip2_862_13996">
<rect x="125.065" y="42.9229" width="18.2125" height="7.85022" rx="3.92511" fill="white"/>
</clipPath>
<clipPath id="clip3_862_13996">
<rect x="47.6621" y="42.9229" width="18.2125" height="7.85022" rx="3.92511" fill="white"/>
</clipPath>
<clipPath id="clip4_862_13996">
<rect width="17.6181" height="8.18232" rx="4.09116" transform="matrix(0.895244 0.445577 -0.556459 0.830875 123.376 56.2055)" fill="white"/>
</clipPath>
<clipPath id="clip5_862_13996">
<rect width="17.6181" height="8.18232" rx="4.09116" transform="matrix(0.895244 0.445577 -0.556459 0.830875 56.3447 22.842)" fill="white"/>
</clipPath>
<clipPath id="clip6_862_13996">
<rect width="16.3646" height="8.80905" rx="4.40452" transform="matrix(0.556459 0.830875 -0.895244 0.445577 75.5098 9.19354)" fill="white"/>
</clipPath>
<clipPath id="clip7_862_13996">
<rect x="100.024" y="72.3614" width="15.7004" height="9.10625" rx="4.55313" transform="rotate(90 100.024 72.3614)" fill="white"/>
</clipPath>
<clipPath id="clip8_862_13996">
<rect x="100.024" y="5.63452" width="15.7004" height="9.10625" rx="4.55313" transform="rotate(90 100.024 5.63452)" fill="white"/>
</clipPath>
<clipPath id="clip9_862_13996">
<rect width="16.3646" height="8.80905" rx="4.40452" transform="matrix(-0.556459 0.830875 -0.895244 -0.445577 84.6152 70.9058)" fill="white"/>
</clipPath>
<clipPath id="clip10_862_13996">
<rect width="16.3646" height="8.80905" rx="4.40452" transform="matrix(-0.556459 0.830875 -0.895244 -0.445577 123.317 13.1187)" fill="white"/>
</clipPath>
<clipPath id="clip11_862_13996">
<rect width="17.6181" height="8.18232" rx="4.09116" transform="matrix(-0.895244 0.445577 -0.556459 -0.830875 72.1172 63.004)" fill="white"/>
</clipPath>
<clipPath id="clip12_862_13996">
<rect width="17.6181" height="8.18232" rx="4.09116" transform="matrix(-0.895244 0.445577 -0.556459 -0.830875 139.148 29.6406)" fill="white"/>
</clipPath>
</defs>
</svg>
