<svg width="20" height="20" viewBox="0 0 20 20" fill="none" xmlns="http://www.w3.org/2000/svg">
<path fill-rule="evenodd" clip-rule="evenodd" d="M7 4C7 2.34315 8.34315 1 10 1C11.6569 1 13 2.34315 13 4V4.5C13 6.433 11.433 8 9.5 8H3C2.44772 8 2 7.55228 2 7C2 6.44772 2.44772 6 3 6H9.5C10.3284 6 11 5.32843 11 4.5V4C11 3.44772 10.5523 3 10 3C9.44772 3 9 3.44772 9 4V4.27273C9 4.82501 8.55228 5.27273 8 5.27273C7.44772 5.27273 7 4.82501 7 4.27273V4ZM11 16.5C11 18.433 12.567 20 14.5 20C16.433 20 18 18.433 18 16.5V16C18 13.7909 16.2091 12 14 12H4C3.44772 12 3 12.4477 3 13C3 13.5523 3.44772 14 4 14H14C15.1046 14 16 14.8954 16 16V16.5C16 17.3284 15.3284 18 14.5 18C13.6716 18 13 17.3284 13 16.5V16C13 15.4477 12.5523 15 12 15C11.4477 15 11 15.4477 11 16V16.5ZM5 9C4.44772 9 4 9.44772 4 10C4 10.5523 4.44772 11 5 11H15C15.5523 11 16 10.5523 16 10C16 9.44772 15.5523 9 15 9H5Z" fill="#231815"/>
</svg>
