<svg width="340" height="315" viewBox="0 0 340 315" fill="none" xmlns="http://www.w3.org/2000/svg">
<rect y="15" width="340" height="300" fill="#023567"/>
<rect x="15" y="269" width="123" height="37" fill="#00379E"/>
<path d="M30.168 295.228C29.294 295.228 28.4833 295.063 27.736 294.734C26.9887 294.392 26.3427 293.942 25.798 293.385L26.748 292.283C27.1913 292.752 27.7107 293.132 28.306 293.423C28.914 293.702 29.541 293.841 30.187 293.841C31.0103 293.841 31.65 293.657 32.106 293.29C32.562 292.91 32.79 292.416 32.79 291.808C32.79 291.377 32.695 291.035 32.505 290.782C32.3277 290.529 32.0807 290.313 31.764 290.136C31.46 289.959 31.1117 289.781 30.719 289.604L28.933 288.825C28.5403 288.66 28.1477 288.445 27.755 288.179C27.375 287.913 27.052 287.571 26.786 287.153C26.5327 286.735 26.406 286.222 26.406 285.614C26.406 284.981 26.5707 284.417 26.9 283.923C27.242 283.416 27.7107 283.024 28.306 282.745C28.9013 282.454 29.5727 282.308 30.32 282.308C31.0673 282.308 31.7577 282.454 32.391 282.745C33.0243 283.024 33.5627 283.391 34.006 283.847L33.151 284.873C32.771 284.506 32.3467 284.221 31.878 284.018C31.422 283.803 30.9027 283.695 30.32 283.695C29.6233 283.695 29.0597 283.86 28.629 284.189C28.211 284.518 28.002 284.962 28.002 285.519C28.002 285.912 28.1033 286.241 28.306 286.507C28.5213 286.76 28.7873 286.969 29.104 287.134C29.4207 287.299 29.7437 287.451 30.073 287.59L31.84 288.35C32.3213 288.553 32.752 288.8 33.132 289.091C33.5247 289.37 33.835 289.718 34.063 290.136C34.291 290.541 34.405 291.054 34.405 291.675C34.405 292.334 34.234 292.935 33.892 293.48C33.55 294.012 33.0623 294.436 32.429 294.753C31.7957 295.07 31.042 295.228 30.168 295.228ZM36.8594 295V282.536H38.4364V287.761H44.2314V282.536H45.8274V295H44.2314V289.129H38.4364V295H36.8594ZM53.8519 295.228C52.8133 295.228 51.8886 294.962 51.0779 294.43C50.2799 293.898 49.6529 293.144 49.1969 292.169C48.7536 291.194 48.5319 290.041 48.5319 288.711C48.5319 287.381 48.7536 286.241 49.1969 285.291C49.6529 284.328 50.2799 283.594 51.0779 283.087C51.8886 282.568 52.8133 282.308 53.8519 282.308C54.9033 282.308 55.8279 282.568 56.6259 283.087C57.4239 283.594 58.0509 284.328 58.5069 285.291C58.9629 286.241 59.1909 287.381 59.1909 288.711C59.1909 290.041 58.9629 291.194 58.5069 292.169C58.0509 293.144 57.4239 293.898 56.6259 294.43C55.8279 294.962 54.9033 295.228 53.8519 295.228ZM53.8519 293.841C54.5993 293.841 55.2453 293.632 55.7899 293.214C56.3473 292.783 56.7779 292.188 57.0819 291.428C57.3859 290.655 57.5379 289.75 57.5379 288.711C57.5379 287.166 57.2023 285.943 56.5309 285.044C55.8596 284.145 54.9666 283.695 53.8519 283.695C52.7373 283.695 51.8443 284.145 51.1729 285.044C50.5016 285.943 50.1659 287.166 50.1659 288.711C50.1659 289.75 50.3179 290.655 50.6219 291.428C50.9259 292.188 51.3566 292.783 51.9139 293.214C52.4713 293.632 53.1173 293.841 53.8519 293.841ZM61.8711 295V282.536H65.4241C66.3615 282.536 67.1785 282.65 67.8751 282.878C68.5718 283.106 69.1165 283.492 69.5091 284.037C69.9018 284.569 70.0981 285.291 70.0981 286.203C70.0981 287.508 69.6738 288.477 68.8251 289.11C67.9765 289.743 66.8681 290.06 65.5001 290.06H63.4481V295H61.8711ZM63.4481 288.768H65.3101C66.3995 288.768 67.2038 288.565 67.7231 288.16C68.2551 287.742 68.5211 287.09 68.5211 286.203C68.5211 285.304 68.2425 284.683 67.6851 284.341C67.1405 283.986 66.3235 283.809 65.2341 283.809H63.4481V288.768ZM76.4366 295V282.536H78.0136V287.761H83.8086V282.536H85.4046V295H83.8086V289.129H78.0136V295H76.4366ZM88.8311 295V282.536H96.0131V283.866H90.4081V287.78H95.1391V289.129H90.4081V293.651H96.2031V295H88.8311ZM98.8506 295V282.536H102.746C103.594 282.536 104.348 282.65 105.007 282.878C105.665 283.093 106.178 283.461 106.546 283.98C106.926 284.487 107.116 285.171 107.116 286.032C107.116 286.995 106.862 287.774 106.356 288.369C105.849 288.952 105.165 289.351 104.304 289.566L107.477 295H105.691L102.689 289.737H100.428V295H98.8506ZM100.428 288.445H102.518C103.493 288.445 104.24 288.249 104.76 287.856C105.279 287.451 105.539 286.843 105.539 286.032C105.539 285.209 105.279 284.632 104.76 284.303C104.24 283.974 103.493 283.809 102.518 283.809H100.428V288.445ZM109.668 295V282.536H116.85V283.866H111.245V287.78H115.976V289.129H111.245V293.651H117.04V295H109.668ZM120.182 291.238L119.973 284.056L119.935 282.27H121.512L121.474 284.056L121.265 291.238H120.182ZM120.733 295.228C120.416 295.228 120.144 295.12 119.916 294.905C119.7 294.677 119.593 294.392 119.593 294.05C119.593 293.683 119.7 293.391 119.916 293.176C120.144 292.948 120.416 292.834 120.733 292.834C121.037 292.834 121.296 292.948 121.512 293.176C121.74 293.391 121.854 293.683 121.854 294.05C121.854 294.392 121.74 294.677 121.512 294.905C121.296 295.12 121.037 295.228 120.733 295.228Z" fill="white"/>
<path d="M0 0H340V47H0V0Z" fill="#C29CCE"/>
<path d="M22.265 23.037H32.012V25.359H22.265V23.037ZM22.535 33H19.835V14.1H33.173V16.449H22.535V33ZM42.5194 33.162C40.9894 33.162 39.6394 32.847 38.4694 32.217C37.3174 31.587 36.4174 30.723 35.7694 29.625C35.1394 28.527 34.8244 27.267 34.8244 25.845C34.8244 24.423 35.1304 23.163 35.7424 22.065C36.3724 20.967 37.2274 20.112 38.3074 19.5C39.4054 18.87 40.6384 18.555 42.0064 18.555C43.3924 18.555 44.6164 18.861 45.6784 19.473C46.7404 20.085 47.5684 20.949 48.1624 22.065C48.7744 23.163 49.0804 24.45 49.0804 25.926C49.0804 26.034 49.0714 26.16 49.0534 26.304C49.0534 26.448 49.0444 26.583 49.0264 26.709H36.8494V24.846H47.6764L46.6234 25.494C46.6414 24.576 46.4524 23.757 46.0564 23.037C45.6604 22.317 45.1114 21.759 44.4094 21.363C43.7254 20.949 42.9244 20.742 42.0064 20.742C41.1064 20.742 40.3054 20.949 39.6034 21.363C38.9014 21.759 38.3524 22.326 37.9564 23.064C37.5604 23.784 37.3624 24.612 37.3624 25.548V25.98C37.3624 26.934 37.5784 27.789 38.0104 28.545C38.4604 29.283 39.0814 29.859 39.8734 30.273C40.6654 30.687 41.5744 30.894 42.6004 30.894C43.4464 30.894 44.2114 30.75 44.8954 30.462C45.5974 30.174 46.2094 29.742 46.7314 29.166L48.1624 30.84C47.5144 31.596 46.7044 32.172 45.7324 32.568C44.7784 32.964 43.7074 33.162 42.5194 33.162ZM61.1671 33V29.976L61.0321 29.409V24.252C61.0321 23.154 60.7081 22.308 60.0601 21.714C59.4301 21.102 58.4761 20.796 57.1981 20.796C56.3521 20.796 55.5241 20.94 54.7141 21.228C53.9041 21.498 53.2201 21.867 52.6621 22.335L51.5821 20.391C52.3201 19.797 53.2021 19.347 54.2281 19.041C55.2721 18.717 56.3611 18.555 57.4951 18.555C59.4571 18.555 60.9691 19.032 62.0311 19.986C63.0931 20.94 63.6241 22.398 63.6241 24.36V33H61.1671ZM56.4691 33.162C55.4071 33.162 54.4711 32.982 53.6611 32.622C52.8691 32.262 52.2571 31.767 51.8251 31.137C51.3931 30.489 51.1771 29.76 51.1771 28.95C51.1771 28.176 51.3571 27.474 51.7171 26.844C52.0951 26.214 52.6981 25.71 53.5261 25.332C54.3721 24.954 55.5061 24.765 56.9281 24.765H61.4641V26.628H57.0361C55.7401 26.628 54.8671 26.844 54.4171 27.276C53.9671 27.708 53.7421 28.23 53.7421 28.842C53.7421 29.544 54.0211 30.111 54.5791 30.543C55.1371 30.957 55.9111 31.164 56.9011 31.164C57.8731 31.164 58.7191 30.948 59.4391 30.516C60.1771 30.084 60.7081 29.454 61.0321 28.626L61.5451 30.408C61.2031 31.254 60.6001 31.929 59.7361 32.433C58.8721 32.919 57.7831 33.162 56.4691 33.162ZM73.3349 33.162C71.8949 33.162 70.7789 32.775 69.9869 32.001C69.1949 31.227 68.7989 30.12 68.7989 28.68V15.558H71.3909V28.572C71.3909 29.346 71.5799 29.94 71.9579 30.354C72.3539 30.768 72.9119 30.975 73.6319 30.975C74.4419 30.975 75.1169 30.75 75.6569 30.3L76.4669 32.163C76.0709 32.505 75.5939 32.757 75.0359 32.919C74.4959 33.081 73.9289 33.162 73.3349 33.162ZM66.3689 20.823V18.69H75.4949V20.823H66.3689ZM85.6216 33.162C84.3976 33.162 83.3176 32.937 82.3816 32.487C81.4636 32.037 80.7436 31.353 80.2216 30.435C79.7176 29.499 79.4656 28.329 79.4656 26.925V18.69H82.0576V26.628C82.0576 28.032 82.3906 29.085 83.0566 29.787C83.7406 30.489 84.6946 30.84 85.9186 30.84C86.8186 30.84 87.6016 30.66 88.2676 30.3C88.9336 29.922 89.4466 29.382 89.8066 28.68C90.1666 27.96 90.3466 27.096 90.3466 26.088V18.69H92.9386V33H90.4816V29.139L90.8866 30.165C90.4186 31.119 89.7166 31.857 88.7806 32.379C87.8446 32.901 86.7916 33.162 85.6216 33.162ZM97.873 33V18.69H100.357V22.578L100.114 21.606C100.51 20.616 101.176 19.86 102.112 19.338C103.048 18.816 104.2 18.555 105.568 18.555V21.066C105.46 21.048 105.352 21.039 105.244 21.039C105.154 21.039 105.064 21.039 104.974 21.039C103.588 21.039 102.49 21.453 101.68 22.281C100.87 23.109 100.465 24.306 100.465 25.872V33H97.873ZM115.003 33.162C113.473 33.162 112.123 32.847 110.953 32.217C109.801 31.587 108.901 30.723 108.253 29.625C107.623 28.527 107.308 27.267 107.308 25.845C107.308 24.423 107.614 23.163 108.226 22.065C108.856 20.967 109.711 20.112 110.791 19.5C111.889 18.87 113.122 18.555 114.49 18.555C115.876 18.555 117.1 18.861 118.162 19.473C119.224 20.085 120.052 20.949 120.646 22.065C121.258 23.163 121.564 24.45 121.564 25.926C121.564 26.034 121.555 26.16 121.537 26.304C121.537 26.448 121.528 26.583 121.51 26.709H109.333V24.846H120.16L119.107 25.494C119.125 24.576 118.936 23.757 118.54 23.037C118.144 22.317 117.595 21.759 116.893 21.363C116.209 20.949 115.408 20.742 114.49 20.742C113.59 20.742 112.789 20.949 112.087 21.363C111.385 21.759 110.836 22.326 110.44 23.064C110.044 23.784 109.846 24.612 109.846 25.548V25.98C109.846 26.934 110.062 27.789 110.494 28.545C110.944 29.283 111.565 29.859 112.357 30.273C113.149 30.687 114.058 30.894 115.084 30.894C115.93 30.894 116.695 30.75 117.379 30.462C118.081 30.174 118.693 29.742 119.215 29.166L120.646 30.84C119.998 31.596 119.188 32.172 118.216 32.568C117.262 32.964 116.191 33.162 115.003 33.162ZM131.076 33.162C129.69 33.162 128.448 32.856 127.35 32.244C126.27 31.632 125.415 30.777 124.785 29.679C124.155 28.581 123.84 27.303 123.84 25.845C123.84 24.387 124.155 23.118 124.785 22.038C125.415 20.94 126.27 20.085 127.35 19.473C128.448 18.861 129.69 18.555 131.076 18.555C132.282 18.555 133.371 18.825 134.343 19.365C135.315 19.905 136.089 20.715 136.665 21.795C137.259 22.875 137.556 24.225 137.556 25.845C137.556 27.465 137.268 28.815 136.692 29.895C136.134 30.975 135.369 31.794 134.397 32.352C133.425 32.892 132.318 33.162 131.076 33.162ZM131.292 30.894C132.192 30.894 133.002 30.687 133.722 30.273C134.46 29.859 135.036 29.274 135.45 28.518C135.882 27.744 136.098 26.853 136.098 25.845C136.098 24.819 135.882 23.937 135.45 23.199C135.036 22.443 134.46 21.858 133.722 21.444C133.002 21.03 132.192 20.823 131.292 20.823C130.374 20.823 129.555 21.03 128.835 21.444C128.115 21.858 127.539 22.443 127.107 23.199C126.675 23.937 126.459 24.819 126.459 25.845C126.459 26.853 126.675 27.744 127.107 28.518C127.539 29.274 128.115 29.859 128.835 30.273C129.555 30.687 130.374 30.894 131.292 30.894ZM136.179 33V29.139L136.341 25.818L136.071 22.497V12.966H138.663V33H136.179Z" fill="black"/>
<path d="M159.078 299V280.1H160.725L169.365 294.842H168.501L177.06 280.1H178.707V299H176.79V283.097H177.249L169.365 296.597H168.42L160.482 283.097H160.995V299H159.078ZM193.343 299V295.868L193.262 295.355V290.117C193.262 288.911 192.92 287.984 192.236 287.336C191.57 286.688 190.571 286.364 189.239 286.364C188.321 286.364 187.448 286.517 186.62 286.823C185.792 287.129 185.09 287.534 184.514 288.038L183.65 286.607C184.37 285.995 185.234 285.527 186.242 285.203C187.25 284.861 188.312 284.69 189.428 284.69C191.264 284.69 192.677 285.149 193.667 286.067C194.675 286.967 195.179 288.344 195.179 290.198V299H193.343ZM188.456 299.135C187.394 299.135 186.467 298.964 185.675 298.622C184.901 298.262 184.307 297.776 183.893 297.164C183.479 296.534 183.272 295.814 183.272 295.004C183.272 294.266 183.443 293.6 183.785 293.006C184.145 292.394 184.721 291.908 185.513 291.548C186.323 291.17 187.403 290.981 188.753 290.981H193.64V292.412H188.807C187.439 292.412 186.485 292.655 185.945 293.141C185.423 293.627 185.162 294.23 185.162 294.95C185.162 295.76 185.477 296.408 186.107 296.894C186.737 297.38 187.619 297.623 188.753 297.623C189.833 297.623 190.76 297.38 191.534 296.894C192.326 296.39 192.902 295.67 193.262 294.734L193.694 296.057C193.334 296.993 192.704 297.74 191.804 298.298C190.922 298.856 189.806 299.135 188.456 299.135ZM206.434 304.373C205.138 304.373 203.896 304.184 202.708 303.806C201.52 303.428 200.557 302.888 199.819 302.186L200.791 300.728C201.457 301.322 202.276 301.79 203.248 302.132C204.238 302.492 205.282 302.672 206.38 302.672C208.18 302.672 209.503 302.249 210.349 301.403C211.195 300.575 211.618 299.279 211.618 297.515V293.978L211.888 291.548L211.699 289.118V284.825H213.535V297.272C213.535 299.72 212.932 301.511 211.726 302.645C210.538 303.797 208.774 304.373 206.434 304.373ZM206.083 298.46C204.733 298.46 203.518 298.172 202.438 297.596C201.358 297.002 200.503 296.183 199.873 295.139C199.261 294.095 198.955 292.898 198.955 291.548C198.955 290.198 199.261 289.01 199.873 287.984C200.503 286.94 201.358 286.13 202.438 285.554C203.518 284.978 204.733 284.69 206.083 284.69C207.343 284.69 208.477 284.951 209.485 285.473C210.493 285.995 211.294 286.769 211.888 287.795C212.482 288.821 212.779 290.072 212.779 291.548C212.779 293.024 212.482 294.275 211.888 295.301C211.294 296.327 210.493 297.11 209.485 297.65C208.477 298.19 207.343 298.46 206.083 298.46ZM206.272 296.759C207.316 296.759 208.243 296.543 209.053 296.111C209.863 295.661 210.502 295.049 210.97 294.275C211.438 293.483 211.672 292.574 211.672 291.548C211.672 290.522 211.438 289.622 210.97 288.848C210.502 288.074 209.863 287.471 209.053 287.039C208.243 286.589 207.316 286.364 206.272 286.364C205.246 286.364 204.319 286.589 203.491 287.039C202.681 287.471 202.042 288.074 201.574 288.848C201.124 289.622 200.899 290.522 200.899 291.548C200.899 292.574 201.124 293.483 201.574 294.275C202.042 295.049 202.681 295.661 203.491 296.111C204.319 296.543 205.246 296.759 206.272 296.759ZM218.869 299V284.825H220.786V299H218.869ZM219.841 281.693C219.445 281.693 219.112 281.558 218.842 281.288C218.572 281.018 218.437 280.694 218.437 280.316C218.437 279.938 218.572 279.623 218.842 279.371C219.112 279.101 219.445 278.966 219.841 278.966C220.237 278.966 220.57 279.092 220.84 279.344C221.11 279.596 221.245 279.911 221.245 280.289C221.245 280.685 221.11 281.018 220.84 281.288C220.588 281.558 220.255 281.693 219.841 281.693ZM232.006 299.135C230.602 299.135 229.342 298.829 228.226 298.217C227.128 297.587 226.264 296.732 225.634 295.652C225.004 294.554 224.689 293.303 224.689 291.899C224.689 290.477 225.004 289.226 225.634 288.146C226.264 287.066 227.128 286.22 228.226 285.608C229.342 284.996 230.602 284.69 232.006 284.69C233.212 284.69 234.301 284.924 235.273 285.392C236.245 285.86 237.01 286.562 237.568 287.498L236.137 288.47C235.651 287.75 235.048 287.219 234.328 286.877C233.608 286.535 232.825 286.364 231.979 286.364C230.971 286.364 230.062 286.598 229.252 287.066C228.442 287.516 227.803 288.155 227.335 288.983C226.867 289.811 226.633 290.783 226.633 291.899C226.633 293.015 226.867 293.987 227.335 294.815C227.803 295.643 228.442 296.291 229.252 296.759C230.062 297.209 230.971 297.434 231.979 297.434C232.825 297.434 233.608 297.263 234.328 296.921C235.048 296.579 235.651 296.057 236.137 295.355L237.568 296.327C237.01 297.245 236.245 297.947 235.273 298.433C234.301 298.901 233.212 299.135 232.006 299.135ZM254.314 299.162C252.802 299.162 251.497 298.946 250.399 298.514C249.319 298.082 248.482 297.461 247.888 296.651C247.312 295.823 247.024 294.851 247.024 293.735C247.024 292.655 247.303 291.737 247.861 290.981C248.437 290.207 249.265 289.613 250.345 289.199C251.443 288.785 252.766 288.578 254.314 288.578C255.844 288.578 257.158 288.785 258.256 289.199C259.354 289.613 260.191 290.207 260.767 290.981C261.361 291.737 261.658 292.655 261.658 293.735C261.658 294.851 261.361 295.823 260.767 296.651C260.173 297.461 259.327 298.082 258.229 298.514C257.131 298.946 255.826 299.162 254.314 299.162ZM254.314 297.515C255.988 297.515 257.293 297.173 258.229 296.489C259.183 295.805 259.66 294.878 259.66 293.708C259.66 292.538 259.183 291.62 258.229 290.954C257.293 290.27 255.988 289.928 254.314 289.928C252.64 289.928 251.335 290.27 250.399 290.954C249.463 291.62 248.995 292.538 248.995 293.708C248.995 294.878 249.463 295.805 250.399 296.489C251.335 297.173 252.64 297.515 254.314 297.515ZM254.314 289.685C252.91 289.685 251.713 289.496 250.723 289.118C249.751 288.74 249.004 288.2 248.482 287.498C247.96 286.778 247.699 285.923 247.699 284.933C247.699 283.889 247.969 282.998 248.509 282.26C249.067 281.504 249.841 280.928 250.831 280.532C251.821 280.136 252.982 279.938 254.314 279.938C255.646 279.938 256.807 280.136 257.797 280.532C258.805 280.928 259.588 281.504 260.146 282.26C260.704 282.998 260.983 283.889 260.983 284.933C260.983 285.923 260.722 286.778 260.2 287.498C259.678 288.2 258.913 288.74 257.905 289.118C256.915 289.496 255.718 289.685 254.314 289.685ZM254.314 288.389C255.79 288.389 256.942 288.083 257.77 287.471C258.598 286.859 259.012 286.04 259.012 285.014C259.012 283.934 258.58 283.097 257.716 282.503C256.87 281.891 255.736 281.585 254.314 281.585C252.892 281.585 251.758 281.891 250.912 282.503C250.066 283.097 249.643 283.925 249.643 284.987C249.643 286.031 250.048 286.859 250.858 287.471C251.686 288.083 252.838 288.389 254.314 288.389ZM264.565 292.52V290.846H271.639V292.52H264.565ZM276.333 299V280.1H284.487C286.593 280.1 288.222 280.523 289.374 281.369C290.544 282.215 291.129 283.412 291.129 284.96C291.129 285.986 290.886 286.85 290.4 287.552C289.932 288.254 289.284 288.785 288.456 289.145C287.646 289.505 286.755 289.685 285.783 289.685L286.242 289.037C287.448 289.037 288.483 289.226 289.347 289.604C290.229 289.964 290.913 290.513 291.399 291.251C291.885 291.971 292.128 292.871 292.128 293.951C292.128 295.553 291.534 296.795 290.346 297.677C289.176 298.559 287.403 299 285.027 299H276.333ZM278.331 297.353H285C286.656 297.353 287.925 297.074 288.807 296.516C289.689 295.94 290.13 295.031 290.13 293.789C290.13 292.565 289.689 291.674 288.807 291.116C287.925 290.54 286.656 290.252 285 290.252H278.115V288.605H284.352C285.864 288.605 287.034 288.317 287.862 287.741C288.708 287.165 289.131 286.31 289.131 285.176C289.131 284.024 288.708 283.169 287.862 282.611C287.034 282.035 285.864 281.747 284.352 281.747H278.331V297.353ZM305.166 299V295.868L305.085 295.355V290.117C305.085 288.911 304.743 287.984 304.059 287.336C303.393 286.688 302.394 286.364 301.062 286.364C300.144 286.364 299.271 286.517 298.443 286.823C297.615 287.129 296.913 287.534 296.337 288.038L295.473 286.607C296.193 285.995 297.057 285.527 298.065 285.203C299.073 284.861 300.135 284.69 301.251 284.69C303.087 284.69 304.5 285.149 305.49 286.067C306.498 286.967 307.002 288.344 307.002 290.198V299H305.166ZM300.279 299.135C299.217 299.135 298.29 298.964 297.498 298.622C296.724 298.262 296.13 297.776 295.716 297.164C295.302 296.534 295.095 295.814 295.095 295.004C295.095 294.266 295.266 293.6 295.608 293.006C295.968 292.394 296.544 291.908 297.336 291.548C298.146 291.17 299.226 290.981 300.576 290.981H305.463V292.412H300.63C299.262 292.412 298.308 292.655 297.768 293.141C297.246 293.627 296.985 294.23 296.985 294.95C296.985 295.76 297.3 296.408 297.93 296.894C298.56 297.38 299.442 297.623 300.576 297.623C301.656 297.623 302.583 297.38 303.357 296.894C304.149 296.39 304.725 295.67 305.085 294.734L305.517 296.057C305.157 296.993 304.527 297.74 303.627 298.298C302.745 298.856 301.629 299.135 300.279 299.135ZM312.209 299V278.966H314.126V299H312.209ZM319.46 299V278.966H321.377V299H319.46Z" fill="white"/>
<path d="M24 69H316V262H24V69Z" fill="white"/>
<path d="M24 69H316V262H24V69Z" stroke="black"/>
</svg>
