<svg width="340" height="316" viewBox="0 0 340 316" fill="none" xmlns="http://www.w3.org/2000/svg">
<rect width="340" height="316" fill="#C4C4C4"/>
<path d="M63.7105 41.3614V18.9614H73.3745C75.8705 18.9614 77.8012 19.4627 79.1665 20.4654C80.5532 21.4681 81.2465 22.8867 81.2465 24.7214C81.2465 25.9374 80.9585 26.9614 80.3825 27.7934C79.8278 28.6254 79.0598 29.2547 78.0785 29.6814C77.1185 30.1081 76.0625 30.3214 74.9105 30.3214L75.4545 29.5534C76.8838 29.5534 78.1105 29.7774 79.1345 30.2254C80.1798 30.6521 80.9905 31.3027 81.5665 32.1774C82.1425 33.0307 82.4305 34.0974 82.4305 35.3774C82.4305 37.2761 81.7265 38.7481 80.3185 39.7934C78.9318 40.8387 76.8305 41.3614 74.0145 41.3614H63.7105ZM66.0785 39.4094H73.9825C75.9452 39.4094 77.4492 39.0787 78.4945 38.4174C79.5398 37.7347 80.0625 36.6574 80.0625 35.1854C80.0625 33.7347 79.5398 32.6787 78.4945 32.0174C77.4492 31.3347 75.9452 30.9934 73.9825 30.9934H65.8225V29.0414H73.2145C75.0065 29.0414 76.3932 28.7001 77.3745 28.0174C78.3772 27.3347 78.8785 26.3214 78.8785 24.9774C78.8785 23.6121 78.3772 22.5987 77.3745 21.9374C76.3932 21.2547 75.0065 20.9134 73.2145 20.9134H66.0785V39.4094ZM94.4915 41.5214C92.7422 41.5214 91.2062 41.1587 89.8835 40.4334C88.5608 39.6867 87.5262 38.6734 86.7795 37.3934C86.0328 36.0921 85.6595 34.6094 85.6595 32.9454C85.6595 31.2814 86.0115 29.8094 86.7155 28.5294C87.4408 27.2494 88.4222 26.2467 89.6595 25.5214C90.9182 24.7747 92.3262 24.4014 93.8835 24.4014C95.4622 24.4014 96.8595 24.7641 98.0755 25.4894C99.3128 26.1934 100.284 27.1961 100.988 28.4974C101.692 29.7774 102.044 31.2601 102.044 32.9454C102.044 33.0521 102.033 33.1694 102.012 33.2974C102.012 33.4041 102.012 33.5214 102.012 33.6494H87.3875V31.9534H100.796L99.8995 32.6254C99.8995 31.4094 99.6328 30.3321 99.0995 29.3934C98.5875 28.4334 97.8835 27.6867 96.9875 27.1534C96.0915 26.6201 95.0568 26.3534 93.8835 26.3534C92.7315 26.3534 91.6968 26.6201 90.7795 27.1534C89.8622 27.6867 89.1475 28.4334 88.6355 29.3934C88.1235 30.3534 87.8675 31.4521 87.8675 32.6894V33.0414C87.8675 34.3214 88.1448 35.4521 88.6995 36.4334C89.2755 37.3934 90.0648 38.1507 91.0675 38.7054C92.0915 39.2387 93.2542 39.5054 94.5555 39.5054C95.5795 39.5054 96.5288 39.3241 97.4035 38.9614C98.2995 38.5987 99.0675 38.0441 99.7075 37.2974L100.988 38.7694C100.241 39.6654 99.3022 40.3481 98.1715 40.8174C97.0622 41.2867 95.8355 41.5214 94.4915 41.5214ZM113.644 41.5214C111.98 41.5214 110.487 41.1587 109.164 40.4334C107.863 39.6867 106.839 38.6734 106.092 37.3934C105.345 36.0921 104.972 34.6094 104.972 32.9454C104.972 31.2601 105.345 29.7774 106.092 28.4974C106.839 27.2174 107.863 26.2147 109.164 25.4894C110.487 24.7641 111.98 24.4014 113.644 24.4014C115.073 24.4014 116.364 24.6787 117.516 25.2334C118.668 25.7881 119.575 26.6201 120.236 27.7294L118.54 28.8814C117.964 28.0281 117.249 27.3987 116.396 26.9934C115.543 26.5881 114.615 26.3854 113.612 26.3854C112.417 26.3854 111.34 26.6627 110.38 27.2174C109.42 27.7507 108.663 28.5081 108.108 29.4894C107.553 30.4707 107.276 31.6227 107.276 32.9454C107.276 34.2681 107.553 35.4201 108.108 36.4014C108.663 37.3827 109.42 38.1507 110.38 38.7054C111.34 39.2387 112.417 39.5054 113.612 39.5054C114.615 39.5054 115.543 39.3027 116.396 38.8974C117.249 38.4921 117.964 37.8734 118.54 37.0414L120.236 38.1934C119.575 39.2814 118.668 40.1134 117.516 40.6894C116.364 41.2441 115.073 41.5214 113.644 41.5214ZM131.266 41.5214C129.645 41.5214 128.183 41.1587 126.882 40.4334C125.602 39.6867 124.589 38.6734 123.842 37.3934C123.095 36.0921 122.722 34.6094 122.722 32.9454C122.722 31.2601 123.095 29.7774 123.842 28.4974C124.589 27.2174 125.602 26.2147 126.882 25.4894C128.162 24.7641 129.623 24.4014 131.266 24.4014C132.93 24.4014 134.402 24.7641 135.682 25.4894C136.983 26.2147 137.997 27.2174 138.722 28.4974C139.469 29.7774 139.842 31.2601 139.842 32.9454C139.842 34.6094 139.469 36.0921 138.722 37.3934C137.997 38.6734 136.983 39.6867 135.682 40.4334C134.381 41.1587 132.909 41.5214 131.266 41.5214ZM131.266 39.5054C132.482 39.5054 133.559 39.2387 134.498 38.7054C135.437 38.1507 136.173 37.3827 136.706 36.4014C137.261 35.3987 137.538 34.2467 137.538 32.9454C137.538 31.6227 137.261 30.4707 136.706 29.4894C136.173 28.5081 135.437 27.7507 134.498 27.2174C133.559 26.6627 132.493 26.3854 131.298 26.3854C130.103 26.3854 129.037 26.6627 128.098 27.2174C127.159 27.7507 126.413 28.5081 125.858 29.4894C125.303 30.4707 125.026 31.6227 125.026 32.9454C125.026 34.2467 125.303 35.3987 125.858 36.4014C126.413 37.3827 127.159 38.1507 128.098 38.7054C129.037 39.2387 130.093 39.5054 131.266 39.5054ZM165.473 24.4014C166.838 24.4014 168.022 24.6681 169.025 25.2014C170.049 25.7134 170.838 26.5027 171.393 27.5694C171.969 28.6361 172.257 29.9801 172.257 31.6014V41.3614H169.985V31.8254C169.985 30.0547 169.558 28.7214 168.705 27.8254C167.873 26.9081 166.689 26.4494 165.153 26.4494C164.001 26.4494 162.998 26.6947 162.145 27.1854C161.313 27.6547 160.662 28.3481 160.193 29.2654C159.745 30.1614 159.521 31.2494 159.521 32.5294V41.3614H157.249V31.8254C157.249 30.0547 156.822 28.7214 155.969 27.8254C155.115 26.9081 153.921 26.4494 152.385 26.4494C151.254 26.4494 150.262 26.6947 149.409 27.1854C148.555 27.6547 147.894 28.3481 147.425 29.2654C146.977 30.1614 146.753 31.2494 146.753 32.5294V41.3614H144.481V24.5614H146.657V29.1054L146.305 28.3054C146.817 27.0894 147.638 26.1401 148.769 25.4574C149.921 24.7534 151.275 24.4014 152.833 24.4014C154.475 24.4014 155.873 24.8174 157.025 25.6494C158.177 26.4601 158.923 27.6867 159.265 29.3294L158.369 28.9774C158.859 27.6121 159.723 26.5134 160.961 25.6814C162.219 24.8281 163.723 24.4014 165.473 24.4014ZM185.554 41.5214C183.805 41.5214 182.269 41.1587 180.946 40.4334C179.623 39.6867 178.589 38.6734 177.842 37.3934C177.095 36.0921 176.722 34.6094 176.722 32.9454C176.722 31.2814 177.074 29.8094 177.778 28.5294C178.503 27.2494 179.485 26.2467 180.722 25.5214C181.981 24.7747 183.389 24.4014 184.946 24.4014C186.525 24.4014 187.922 24.7641 189.138 25.4894C190.375 26.1934 191.346 27.1961 192.05 28.4974C192.754 29.7774 193.106 31.2601 193.106 32.9454C193.106 33.0521 193.095 33.1694 193.074 33.2974C193.074 33.4041 193.074 33.5214 193.074 33.6494H178.45V31.9534H191.858L190.962 32.6254C190.962 31.4094 190.695 30.3321 190.162 29.3934C189.65 28.4334 188.946 27.6867 188.05 27.1534C187.154 26.6201 186.119 26.3534 184.946 26.3534C183.794 26.3534 182.759 26.6201 181.842 27.1534C180.925 27.6867 180.21 28.4334 179.698 29.3934C179.186 30.3534 178.93 31.4521 178.93 32.6894V33.0414C178.93 34.3214 179.207 35.4521 179.762 36.4334C180.338 37.3934 181.127 38.1507 182.13 38.7054C183.154 39.2387 184.317 39.5054 185.618 39.5054C186.642 39.5054 187.591 39.3241 188.466 38.9614C189.362 38.5987 190.13 38.0441 190.77 37.2974L192.05 38.7694C191.303 39.6654 190.365 40.3481 189.234 40.8174C188.125 41.2867 186.898 41.5214 185.554 41.5214ZM216.634 41.3614V37.6494L216.538 37.0414V30.8334C216.538 29.4041 216.132 28.3054 215.322 27.5374C214.532 26.7694 213.348 26.3854 211.77 26.3854C210.682 26.3854 209.647 26.5667 208.666 26.9294C207.684 27.2921 206.852 27.7721 206.17 28.3694L205.146 26.6734C205.999 25.9481 207.023 25.3934 208.218 25.0094C209.412 24.6041 210.671 24.4014 211.994 24.4014C214.17 24.4014 215.844 24.9454 217.018 26.0334C218.212 27.1001 218.81 28.7321 218.81 30.9294V41.3614H216.634ZM210.842 41.5214C209.583 41.5214 208.484 41.3187 207.546 40.9134C206.628 40.4867 205.924 39.9107 205.434 39.1854C204.943 38.4387 204.698 37.5854 204.698 36.6254C204.698 35.7507 204.9 34.9614 205.306 34.2574C205.732 33.5321 206.415 32.9561 207.354 32.5294C208.314 32.0814 209.594 31.8574 211.194 31.8574H216.986V33.5534H211.258C209.636 33.5534 208.506 33.8414 207.866 34.4174C207.247 34.9934 206.938 35.7081 206.938 36.5614C206.938 37.5214 207.311 38.2894 208.058 38.8654C208.804 39.4414 209.85 39.7294 211.194 39.7294C212.474 39.7294 213.572 39.4414 214.49 38.8654C215.428 38.2681 216.111 37.4147 216.538 36.3054L217.05 37.8734C216.623 38.9827 215.876 39.8681 214.81 40.5294C213.764 41.1907 212.442 41.5214 210.842 41.5214ZM233.836 41.3614V18.9614H242.22C244.118 18.9614 245.75 19.2707 247.116 19.8894C248.481 20.4867 249.526 21.3614 250.252 22.5134C250.998 23.6441 251.372 25.0201 251.372 26.6414C251.372 28.2201 250.998 29.5854 250.252 30.7374C249.526 31.8681 248.481 32.7427 247.116 33.3614C245.75 33.9801 244.118 34.2894 242.22 34.2894H235.148L236.204 33.1694V41.3614H233.836ZM236.204 33.3614L235.148 32.2094H242.156C244.396 32.2094 246.092 31.7294 247.244 30.7694C248.417 29.7881 249.003 28.4121 249.003 26.6414C249.003 24.8494 248.417 23.4627 247.244 22.4814C246.092 21.5001 244.396 21.0094 242.156 21.0094H235.148L236.204 19.8894V33.3614ZM255.606 41.3614V24.5614H257.782V29.1374L257.558 28.3374C258.027 27.0574 258.816 26.0867 259.926 25.4254C261.035 24.7427 262.411 24.4014 264.054 24.4014V26.6094C263.968 26.6094 263.883 26.6094 263.798 26.6094C263.712 26.5881 263.627 26.5774 263.542 26.5774C261.771 26.5774 260.384 27.1214 259.382 28.2094C258.379 29.2761 257.878 30.8014 257.878 32.7854V41.3614H255.606ZM274.891 41.5214C273.27 41.5214 271.808 41.1587 270.507 40.4334C269.227 39.6867 268.214 38.6734 267.467 37.3934C266.72 36.0921 266.347 34.6094 266.347 32.9454C266.347 31.2601 266.72 29.7774 267.467 28.4974C268.214 27.2174 269.227 26.2147 270.507 25.4894C271.787 24.7641 273.248 24.4014 274.891 24.4014C276.555 24.4014 278.027 24.7641 279.307 25.4894C280.608 26.2147 281.622 27.2174 282.347 28.4974C283.094 29.7774 283.467 31.2601 283.467 32.9454C283.467 34.6094 283.094 36.0921 282.347 37.3934C281.622 38.6734 280.608 39.6867 279.307 40.4334C278.006 41.1587 276.534 41.5214 274.891 41.5214ZM274.891 39.5054C276.107 39.5054 277.184 39.2387 278.123 38.7054C279.062 38.1507 279.798 37.3827 280.331 36.4014C280.886 35.3987 281.163 34.2467 281.163 32.9454C281.163 31.6227 280.886 30.4707 280.331 29.4894C279.798 28.5081 279.062 27.7507 278.123 27.2174C277.184 26.6627 276.118 26.3854 274.923 26.3854C273.728 26.3854 272.662 26.6627 271.723 27.2174C270.784 27.7507 270.038 28.5081 269.483 29.4894C268.928 30.4707 268.651 31.6227 268.651 32.9454C268.651 34.2467 268.928 35.3987 269.483 36.4014C270.038 37.3827 270.784 38.1507 271.723 38.7054C272.662 39.2387 273.718 39.5054 274.891 39.5054ZM127.157 80.3614L117.237 57.9614H119.797L129.077 79.0494H127.669L137.013 57.9614H139.413L129.493 80.3614H127.157ZM147.75 80.5214C146.129 80.5214 144.668 80.1587 143.366 79.4334C142.086 78.6867 141.073 77.6734 140.326 76.3934C139.58 75.0921 139.206 73.6094 139.206 71.9454C139.206 70.2601 139.58 68.7774 140.326 67.4974C141.073 66.2174 142.086 65.2147 143.366 64.4894C144.646 63.7641 146.108 63.4014 147.75 63.4014C149.414 63.4014 150.886 63.7641 152.166 64.4894C153.468 65.2147 154.481 66.2174 155.206 67.4974C155.953 68.7774 156.326 70.2601 156.326 71.9454C156.326 73.6094 155.953 75.0921 155.206 76.3934C154.481 77.6734 153.468 78.6867 152.166 79.4334C150.865 80.1587 149.393 80.5214 147.75 80.5214ZM147.75 78.5054C148.966 78.5054 150.044 78.2387 150.982 77.7054C151.921 77.1507 152.657 76.3827 153.19 75.4014C153.745 74.3987 154.022 73.2467 154.022 71.9454C154.022 70.6227 153.745 69.4707 153.19 68.4894C152.657 67.5081 151.921 66.7507 150.982 66.2174C150.044 65.6627 148.977 65.3854 147.782 65.3854C146.588 65.3854 145.521 65.6627 144.582 66.2174C143.644 66.7507 142.897 67.5081 142.342 68.4894C141.788 69.4707 141.51 70.6227 141.51 71.9454C141.51 73.2467 141.788 74.3987 142.342 75.4014C142.897 76.3827 143.644 77.1507 144.582 77.7054C145.521 78.2387 146.577 78.5054 147.75 78.5054ZM160.624 86.7294C159.835 86.7294 159.077 86.6014 158.352 86.3454C157.648 86.0894 157.04 85.7054 156.528 85.1934L157.584 83.4974C158.011 83.9027 158.469 84.2121 158.96 84.4254C159.472 84.6601 160.037 84.7774 160.656 84.7774C161.403 84.7774 162.043 84.5641 162.576 84.1374C163.131 83.7321 163.653 83.0067 164.144 81.9614L165.232 79.4974L165.488 79.1454L172.4 63.5614H174.64L166.224 82.3774C165.755 83.4654 165.232 84.3294 164.656 84.9694C164.101 85.6094 163.493 86.0574 162.832 86.3134C162.171 86.5907 161.435 86.7294 160.624 86.7294ZM165.104 80.8414L157.36 63.5614H159.728L166.576 78.9854L165.104 80.8414ZM184.507 80.5214C182.758 80.5214 181.222 80.1587 179.899 79.4334C178.576 78.6867 177.542 77.6734 176.795 76.3934C176.048 75.0921 175.675 73.6094 175.675 71.9454C175.675 70.2814 176.027 68.8094 176.731 67.5294C177.456 66.2494 178.438 65.2467 179.675 64.5214C180.934 63.7747 182.342 63.4014 183.899 63.4014C185.478 63.4014 186.875 63.7641 188.091 64.4894C189.328 65.1934 190.299 66.1961 191.003 67.4974C191.707 68.7774 192.059 70.2601 192.059 71.9454C192.059 72.0521 192.048 72.1694 192.027 72.2974C192.027 72.4041 192.027 72.5214 192.027 72.6494H177.403V70.9534H190.811L189.915 71.6254C189.915 70.4094 189.648 69.3321 189.115 68.3934C188.603 67.4334 187.899 66.6867 187.003 66.1534C186.107 65.6201 185.072 65.3534 183.899 65.3534C182.747 65.3534 181.712 65.6201 180.795 66.1534C179.878 66.6867 179.163 67.4334 178.651 68.3934C178.139 69.3534 177.883 70.4521 177.883 71.6894V72.0414C177.883 73.3214 178.16 74.4521 178.715 75.4334C179.291 76.3934 180.08 77.1507 181.083 77.7054C182.107 78.2387 183.27 78.5054 184.571 78.5054C185.595 78.5054 186.544 78.3241 187.419 77.9614C188.315 77.5987 189.083 77.0441 189.723 76.2974L191.003 77.7694C190.256 78.6654 189.318 79.3481 188.187 79.8174C187.078 80.2867 185.851 80.5214 184.507 80.5214ZM203.628 80.5214C202.198 80.5214 200.95 80.2547 199.884 79.7214C198.817 79.1881 197.985 78.3881 197.388 77.3214C196.812 76.2547 196.524 74.9214 196.524 73.3214V63.5614H198.796V73.0654C198.796 74.8574 199.233 76.2121 200.108 77.1294C201.004 78.0254 202.252 78.4734 203.852 78.4734C205.025 78.4734 206.038 78.2387 206.892 77.7694C207.766 77.2787 208.428 76.5747 208.876 75.6574C209.345 74.7401 209.58 73.6414 209.58 72.3614V63.5614H211.852V80.3614H209.676V75.7534L210.028 76.5854C209.494 77.8227 208.662 78.7934 207.532 79.4974C206.422 80.1801 205.121 80.5214 203.628 80.5214ZM218.184 80.3614V63.5614H220.36V68.1374L220.136 67.3374C220.605 66.0574 221.394 65.0867 222.504 64.4254C223.613 63.7427 224.989 63.4014 226.632 63.4014V65.6094C226.546 65.6094 226.461 65.6094 226.376 65.6094C226.29 65.5881 226.205 65.5774 226.12 65.5774C224.349 65.5774 222.962 66.1214 221.96 67.2094C220.957 68.2761 220.456 69.8014 220.456 71.7854V80.3614H218.184Z" fill="black"/>
<path d="M100.872 261V250.5H104.967C105.887 250.5 106.672 250.645 107.322 250.935C107.972 251.225 108.472 251.645 108.822 252.195C109.172 252.745 109.347 253.4 109.347 254.16C109.347 254.92 109.172 255.575 108.822 256.125C108.472 256.665 107.972 257.085 107.322 257.385C106.672 257.675 105.887 257.82 104.967 257.82H101.697L102.372 257.115V261H100.872ZM102.372 257.265L101.697 256.515H104.922C105.882 256.515 106.607 256.31 107.097 255.9C107.597 255.49 107.847 254.91 107.847 254.16C107.847 253.41 107.597 252.83 107.097 252.42C106.607 252.01 105.882 251.805 104.922 251.805H101.697L102.372 251.055V257.265ZM116.032 261.09C115.352 261.09 114.752 260.965 114.232 260.715C113.722 260.465 113.322 260.085 113.032 259.575C112.752 259.055 112.612 258.405 112.612 257.625V253.05H114.052V257.46C114.052 258.24 114.237 258.825 114.607 259.215C114.987 259.605 115.517 259.8 116.197 259.8C116.697 259.8 117.132 259.7 117.502 259.5C117.872 259.29 118.157 258.99 118.357 258.6C118.557 258.2 118.657 257.72 118.657 257.16V253.05H120.097V261H118.732V258.855L118.957 259.425C118.697 259.955 118.307 260.365 117.787 260.655C117.267 260.945 116.682 261.09 116.032 261.09ZM124.039 261V253.05H125.419V255.21L125.284 254.67C125.504 254.12 125.874 253.7 126.394 253.41C126.914 253.12 127.554 252.975 128.314 252.975V254.37C128.254 254.36 128.194 254.355 128.134 254.355C128.084 254.355 128.034 254.355 127.984 254.355C127.214 254.355 126.604 254.585 126.154 255.045C125.704 255.505 125.479 256.17 125.479 257.04V261H124.039ZM134.68 261.09C133.87 261.09 133.145 260.915 132.505 260.565C131.875 260.215 131.38 259.735 131.02 259.125C130.66 258.515 130.48 257.815 130.48 257.025C130.48 256.235 130.66 255.535 131.02 254.925C131.38 254.315 131.875 253.84 132.505 253.5C133.145 253.15 133.87 252.975 134.68 252.975C135.4 252.975 136.04 253.12 136.6 253.41C137.17 253.69 137.61 254.11 137.92 254.67L136.825 255.375C136.565 254.985 136.245 254.7 135.865 254.52C135.495 254.33 135.095 254.235 134.665 254.235C134.145 254.235 133.68 254.35 133.27 254.58C132.86 254.81 132.535 255.135 132.295 255.555C132.055 255.965 131.935 256.455 131.935 257.025C131.935 257.595 132.055 258.09 132.295 258.51C132.535 258.93 132.86 259.255 133.27 259.485C133.68 259.715 134.145 259.83 134.665 259.83C135.095 259.83 135.495 259.74 135.865 259.56C136.245 259.37 136.565 259.08 136.825 258.69L137.92 259.38C137.61 259.93 137.17 260.355 136.6 260.655C136.04 260.945 135.4 261.09 134.68 261.09ZM145.127 252.975C145.777 252.975 146.347 253.1 146.837 253.35C147.337 253.6 147.727 253.98 148.007 254.49C148.287 255 148.427 255.645 148.427 256.425V261H146.987V256.59C146.987 255.82 146.797 255.24 146.417 254.85C146.047 254.46 145.522 254.265 144.842 254.265C144.332 254.265 143.887 254.365 143.507 254.565C143.127 254.765 142.832 255.06 142.622 255.45C142.422 255.84 142.322 256.325 142.322 256.905V261H140.882V249.87H142.322V255.195L142.037 254.625C142.297 254.105 142.697 253.7 143.237 253.41C143.777 253.12 144.407 252.975 145.127 252.975ZM157.227 261V259.32L157.152 259.005V256.14C157.152 255.53 156.972 255.06 156.612 254.73C156.262 254.39 155.732 254.22 155.022 254.22C154.552 254.22 154.092 254.3 153.642 254.46C153.192 254.61 152.812 254.815 152.502 255.075L151.902 253.995C152.312 253.665 152.802 253.415 153.372 253.245C153.952 253.065 154.557 252.975 155.187 252.975C156.277 252.975 157.117 253.24 157.707 253.77C158.297 254.3 158.592 255.11 158.592 256.2V261H157.227ZM154.617 261.09C154.027 261.09 153.507 260.99 153.057 260.79C152.617 260.59 152.277 260.315 152.037 259.965C151.797 259.605 151.677 259.2 151.677 258.75C151.677 258.32 151.777 257.93 151.977 257.58C152.187 257.23 152.522 256.95 152.982 256.74C153.452 256.53 154.082 256.425 154.872 256.425H157.392V257.46H154.932C154.212 257.46 153.727 257.58 153.477 257.82C153.227 258.06 153.102 258.35 153.102 258.69C153.102 259.08 153.257 259.395 153.567 259.635C153.877 259.865 154.307 259.98 154.857 259.98C155.397 259.98 155.867 259.86 156.267 259.62C156.677 259.38 156.972 259.03 157.152 258.57L157.437 259.56C157.247 260.03 156.912 260.405 156.432 260.685C155.952 260.955 155.347 261.09 154.617 261.09ZM164.737 261.09C164.077 261.09 163.447 261 162.847 260.82C162.257 260.64 161.792 260.42 161.452 260.16L162.052 259.02C162.392 259.25 162.812 259.445 163.312 259.605C163.812 259.765 164.322 259.845 164.842 259.845C165.512 259.845 165.992 259.75 166.282 259.56C166.582 259.37 166.732 259.105 166.732 258.765C166.732 258.515 166.642 258.32 166.462 258.18C166.282 258.04 166.042 257.935 165.742 257.865C165.452 257.795 165.127 257.735 164.767 257.685C164.407 257.625 164.047 257.555 163.687 257.475C163.327 257.385 162.997 257.265 162.697 257.115C162.397 256.955 162.157 256.74 161.977 256.47C161.797 256.19 161.707 255.82 161.707 255.36C161.707 254.88 161.842 254.46 162.112 254.1C162.382 253.74 162.762 253.465 163.252 253.275C163.752 253.075 164.342 252.975 165.022 252.975C165.542 252.975 166.067 253.04 166.597 253.17C167.137 253.29 167.577 253.465 167.917 253.695L167.302 254.835C166.942 254.595 166.567 254.43 166.177 254.34C165.787 254.25 165.397 254.205 165.007 254.205C164.377 254.205 163.907 254.31 163.597 254.52C163.287 254.72 163.132 254.98 163.132 255.3C163.132 255.57 163.222 255.78 163.402 255.93C163.592 256.07 163.832 256.18 164.122 256.26C164.422 256.34 164.752 256.41 165.112 256.47C165.472 256.52 165.832 256.59 166.192 256.68C166.552 256.76 166.877 256.875 167.167 257.025C167.467 257.175 167.707 257.385 167.887 257.655C168.077 257.925 168.172 258.285 168.172 258.735C168.172 259.215 168.032 259.63 167.752 259.98C167.472 260.33 167.077 260.605 166.567 260.805C166.057 260.995 165.447 261.09 164.737 261.09ZM174.711 261.09C173.861 261.09 173.111 260.915 172.461 260.565C171.821 260.215 171.321 259.735 170.961 259.125C170.611 258.515 170.436 257.815 170.436 257.025C170.436 256.235 170.606 255.535 170.946 254.925C171.296 254.315 171.771 253.84 172.371 253.5C172.981 253.15 173.666 252.975 174.426 252.975C175.196 252.975 175.876 253.145 176.466 253.485C177.056 253.825 177.516 254.305 177.846 254.925C178.186 255.535 178.356 256.25 178.356 257.07C178.356 257.13 178.351 257.2 178.341 257.28C178.341 257.36 178.336 257.435 178.326 257.505H171.561V256.47H177.576L176.991 256.83C177.001 256.32 176.896 255.865 176.676 255.465C176.456 255.065 176.151 254.755 175.761 254.535C175.381 254.305 174.936 254.19 174.426 254.19C173.926 254.19 173.481 254.305 173.091 254.535C172.701 254.755 172.396 255.07 172.176 255.48C171.956 255.88 171.846 256.34 171.846 256.86V257.1C171.846 257.63 171.966 258.105 172.206 258.525C172.456 258.935 172.801 259.255 173.241 259.485C173.681 259.715 174.186 259.83 174.756 259.83C175.226 259.83 175.651 259.75 176.031 259.59C176.421 259.43 176.761 259.19 177.051 258.87L177.846 259.8C177.486 260.22 177.036 260.54 176.496 260.76C175.966 260.98 175.371 261.09 174.711 261.09ZM190.189 261.09C189.389 261.09 188.679 260.915 188.059 260.565C187.439 260.215 186.949 259.735 186.589 259.125C186.229 258.505 186.049 257.805 186.049 257.025C186.049 256.235 186.229 255.535 186.589 254.925C186.949 254.315 187.439 253.84 188.059 253.5C188.679 253.15 189.389 252.975 190.189 252.975C190.979 252.975 191.684 253.15 192.304 253.5C192.934 253.84 193.424 254.315 193.774 254.925C194.134 255.525 194.314 256.225 194.314 257.025C194.314 257.815 194.134 258.515 193.774 259.125C193.424 259.735 192.934 260.215 192.304 260.565C191.684 260.915 190.979 261.09 190.189 261.09ZM190.189 259.83C190.699 259.83 191.154 259.715 191.554 259.485C191.964 259.255 192.284 258.93 192.514 258.51C192.744 258.08 192.859 257.585 192.859 257.025C192.859 256.455 192.744 255.965 192.514 255.555C192.284 255.135 191.964 254.81 191.554 254.58C191.154 254.35 190.699 254.235 190.189 254.235C189.679 254.235 189.224 254.35 188.824 254.58C188.424 254.81 188.104 255.135 187.864 255.555C187.624 255.965 187.504 256.455 187.504 257.025C187.504 257.585 187.624 258.08 187.864 258.51C188.104 258.93 188.424 259.255 188.824 259.485C189.224 259.715 189.679 259.83 190.189 259.83ZM200.851 261.09C200.171 261.09 199.571 260.965 199.051 260.715C198.541 260.465 198.141 260.085 197.851 259.575C197.571 259.055 197.431 258.405 197.431 257.625V253.05H198.871V257.46C198.871 258.24 199.056 258.825 199.426 259.215C199.806 259.605 200.336 259.8 201.016 259.8C201.516 259.8 201.951 259.7 202.321 259.5C202.691 259.29 202.976 258.99 203.176 258.6C203.376 258.2 203.476 257.72 203.476 257.16V253.05H204.916V261H203.551V258.855L203.776 259.425C203.516 259.955 203.126 260.365 202.606 260.655C202.086 260.945 201.501 261.09 200.851 261.09ZM208.857 261V253.05H210.237V255.21L210.102 254.67C210.322 254.12 210.692 253.7 211.212 253.41C211.732 253.12 212.372 252.975 213.132 252.975V254.37C213.072 254.36 213.012 254.355 212.952 254.355C212.902 254.355 212.852 254.355 212.802 254.355C212.032 254.355 211.422 254.585 210.972 255.045C210.522 255.505 210.297 256.17 210.297 257.04V261H208.857ZM221.648 261V250.5H225.743C226.663 250.5 227.448 250.645 228.098 250.935C228.748 251.225 229.248 251.645 229.598 252.195C229.948 252.745 230.123 253.4 230.123 254.16C230.123 254.92 229.948 255.575 229.598 256.125C229.248 256.665 228.748 257.085 228.098 257.385C227.448 257.675 226.663 257.82 225.743 257.82H222.473L223.148 257.115V261H221.648ZM223.148 257.265L222.473 256.515H225.698C226.658 256.515 227.383 256.31 227.873 255.9C228.373 255.49 228.623 254.91 228.623 254.16C228.623 253.41 228.373 252.83 227.873 252.42C227.383 252.01 226.658 251.805 225.698 251.805H222.473L223.148 251.055V257.265ZM233.17 261V253.05H234.55V255.21L234.415 254.67C234.635 254.12 235.005 253.7 235.525 253.41C236.045 253.12 236.685 252.975 237.445 252.975V254.37C237.385 254.36 237.325 254.355 237.265 254.355C237.215 254.355 237.165 254.355 237.115 254.355C236.345 254.355 235.735 254.585 235.285 255.045C234.835 255.505 234.61 256.17 234.61 257.04V261H233.17ZM243.752 261.09C242.952 261.09 242.242 260.915 241.622 260.565C241.002 260.215 240.512 259.735 240.152 259.125C239.792 258.505 239.612 257.805 239.612 257.025C239.612 256.235 239.792 255.535 240.152 254.925C240.512 254.315 241.002 253.84 241.622 253.5C242.242 253.15 242.952 252.975 243.752 252.975C244.542 252.975 245.247 253.15 245.867 253.5C246.497 253.84 246.987 254.315 247.337 254.925C247.697 255.525 247.877 256.225 247.877 257.025C247.877 257.815 247.697 258.515 247.337 259.125C246.987 259.735 246.497 260.215 245.867 260.565C245.247 260.915 244.542 261.09 243.752 261.09ZM243.752 259.83C244.262 259.83 244.717 259.715 245.117 259.485C245.527 259.255 245.847 258.93 246.077 258.51C246.307 258.08 246.422 257.585 246.422 257.025C246.422 256.455 246.307 255.965 246.077 255.555C245.847 255.135 245.527 254.81 245.117 254.58C244.717 254.35 244.262 254.235 243.752 254.235C243.242 254.235 242.787 254.35 242.387 254.58C241.987 254.81 241.667 255.135 241.427 255.555C241.187 255.965 241.067 256.455 241.067 257.025C241.067 257.585 241.187 258.08 241.427 258.51C241.667 258.93 241.987 259.255 242.387 259.485C242.787 259.715 243.242 259.83 243.752 259.83ZM101.459 270.975C102.099 270.975 102.664 271.1 103.154 271.35C103.644 271.6 104.024 271.98 104.294 272.49C104.574 273 104.714 273.645 104.714 274.425V279H103.274V274.59C103.274 273.82 103.094 273.24 102.734 272.85C102.374 272.46 101.869 272.265 101.219 272.265C100.739 272.265 100.319 272.365 99.959 272.565C99.599 272.765 99.319 273.06 99.119 273.45C98.929 273.84 98.834 274.325 98.834 274.905V279H97.394V274.59C97.394 273.82 97.214 273.24 96.854 272.85C96.504 272.46 95.999 272.265 95.339 272.265C94.869 272.265 94.454 272.365 94.094 272.565C93.734 272.765 93.454 273.06 93.254 273.45C93.054 273.84 92.954 274.325 92.954 274.905V279H91.514V271.05H92.894V273.165L92.669 272.625C92.919 272.105 93.304 271.7 93.824 271.41C94.344 271.12 94.949 270.975 95.639 270.975C96.399 270.975 97.054 271.165 97.604 271.545C98.154 271.915 98.514 272.48 98.684 273.24L98.099 273C98.339 272.39 98.759 271.9 99.359 271.53C99.959 271.16 100.659 270.975 101.459 270.975ZM112.104 279.09C111.254 279.09 110.504 278.915 109.854 278.565C109.214 278.215 108.714 277.735 108.354 277.125C108.004 276.515 107.829 275.815 107.829 275.025C107.829 274.235 107.999 273.535 108.339 272.925C108.689 272.315 109.164 271.84 109.764 271.5C110.374 271.15 111.059 270.975 111.819 270.975C112.589 270.975 113.269 271.145 113.859 271.485C114.449 271.825 114.909 272.305 115.239 272.925C115.579 273.535 115.749 274.25 115.749 275.07C115.749 275.13 115.744 275.2 115.734 275.28C115.734 275.36 115.729 275.435 115.719 275.505H108.954V274.47H114.969L114.384 274.83C114.394 274.32 114.289 273.865 114.069 273.465C113.849 273.065 113.544 272.755 113.154 272.535C112.774 272.305 112.329 272.19 111.819 272.19C111.319 272.19 110.874 272.305 110.484 272.535C110.094 272.755 109.789 273.07 109.569 273.48C109.349 273.88 109.239 274.34 109.239 274.86V275.1C109.239 275.63 109.359 276.105 109.599 276.525C109.849 276.935 110.194 277.255 110.634 277.485C111.074 277.715 111.579 277.83 112.149 277.83C112.619 277.83 113.044 277.75 113.424 277.59C113.814 277.43 114.154 277.19 114.444 276.87L115.239 277.8C114.879 278.22 114.429 278.54 113.889 278.76C113.359 278.98 112.764 279.09 112.104 279.09ZM128.893 270.975C129.533 270.975 130.098 271.1 130.588 271.35C131.078 271.6 131.458 271.98 131.728 272.49C132.008 273 132.148 273.645 132.148 274.425V279H130.708V274.59C130.708 273.82 130.528 273.24 130.168 272.85C129.808 272.46 129.303 272.265 128.653 272.265C128.173 272.265 127.753 272.365 127.393 272.565C127.033 272.765 126.753 273.06 126.553 273.45C126.363 273.84 126.268 274.325 126.268 274.905V279H124.828V274.59C124.828 273.82 124.648 273.24 124.288 272.85C123.938 272.46 123.433 272.265 122.773 272.265C122.303 272.265 121.888 272.365 121.528 272.565C121.168 272.765 120.888 273.06 120.688 273.45C120.488 273.84 120.388 274.325 120.388 274.905V279H118.948V271.05H120.328V273.165L120.103 272.625C120.353 272.105 120.738 271.7 121.258 271.41C121.778 271.12 122.383 270.975 123.073 270.975C123.833 270.975 124.488 271.165 125.038 271.545C125.588 271.915 125.948 272.48 126.118 273.24L125.533 273C125.773 272.39 126.193 271.9 126.793 271.53C127.393 271.16 128.093 270.975 128.893 270.975ZM140.213 279.09C139.533 279.09 138.918 278.94 138.368 278.64C137.828 278.33 137.398 277.875 137.078 277.275C136.768 276.675 136.613 275.925 136.613 275.025C136.613 274.125 136.773 273.375 137.093 272.775C137.423 272.175 137.858 271.725 138.398 271.425C138.948 271.125 139.553 270.975 140.213 270.975C140.993 270.975 141.683 271.145 142.283 271.485C142.883 271.825 143.358 272.3 143.708 272.91C144.058 273.51 144.233 274.215 144.233 275.025C144.233 275.835 144.058 276.545 143.708 277.155C143.358 277.765 142.883 278.24 142.283 278.58C141.683 278.92 140.993 279.09 140.213 279.09ZM135.998 279V267.87H137.438V273.165L137.288 275.01L137.378 276.855V279H135.998ZM140.093 277.83C140.603 277.83 141.058 277.715 141.458 277.485C141.868 277.255 142.188 276.93 142.418 276.51C142.658 276.08 142.778 275.585 142.778 275.025C142.778 274.455 142.658 273.965 142.418 273.555C142.188 273.135 141.868 272.81 141.458 272.58C141.058 272.35 140.603 272.235 140.093 272.235C139.593 272.235 139.138 272.35 138.728 272.58C138.328 272.81 138.008 273.135 137.768 273.555C137.538 273.965 137.423 274.455 137.423 275.025C137.423 275.585 137.538 276.08 137.768 276.51C138.008 276.93 138.328 277.255 138.728 277.485C139.138 277.715 139.593 277.83 140.093 277.83ZM150.962 279.09C150.112 279.09 149.362 278.915 148.712 278.565C148.072 278.215 147.572 277.735 147.212 277.125C146.862 276.515 146.687 275.815 146.687 275.025C146.687 274.235 146.857 273.535 147.197 272.925C147.547 272.315 148.022 271.84 148.622 271.5C149.232 271.15 149.917 270.975 150.677 270.975C151.447 270.975 152.127 271.145 152.717 271.485C153.307 271.825 153.767 272.305 154.097 272.925C154.437 273.535 154.607 274.25 154.607 275.07C154.607 275.13 154.602 275.2 154.592 275.28C154.592 275.36 154.587 275.435 154.577 275.505H147.812V274.47H153.827L153.242 274.83C153.252 274.32 153.147 273.865 152.927 273.465C152.707 273.065 152.402 272.755 152.012 272.535C151.632 272.305 151.187 272.19 150.677 272.19C150.177 272.19 149.732 272.305 149.342 272.535C148.952 272.755 148.647 273.07 148.427 273.48C148.207 273.88 148.097 274.34 148.097 274.86V275.1C148.097 275.63 148.217 276.105 148.457 276.525C148.707 276.935 149.052 277.255 149.492 277.485C149.932 277.715 150.437 277.83 151.007 277.83C151.477 277.83 151.902 277.75 152.282 277.59C152.672 277.43 153.012 277.19 153.302 276.87L154.097 277.8C153.737 278.22 153.287 278.54 152.747 278.76C152.217 278.98 151.622 279.09 150.962 279.09ZM157.807 279V271.05H159.187V273.21L159.052 272.67C159.272 272.12 159.642 271.7 160.162 271.41C160.682 271.12 161.322 270.975 162.082 270.975V272.37C162.022 272.36 161.962 272.355 161.902 272.355C161.852 272.355 161.802 272.355 161.752 272.355C160.982 272.355 160.372 272.585 159.922 273.045C159.472 273.505 159.247 274.17 159.247 275.04V279H157.807ZM167.425 279.09C166.765 279.09 166.135 279 165.535 278.82C164.945 278.64 164.48 278.42 164.14 278.16L164.74 277.02C165.08 277.25 165.5 277.445 166 277.605C166.5 277.765 167.01 277.845 167.53 277.845C168.2 277.845 168.68 277.75 168.97 277.56C169.27 277.37 169.42 277.105 169.42 276.765C169.42 276.515 169.33 276.32 169.15 276.18C168.97 276.04 168.73 275.935 168.43 275.865C168.14 275.795 167.815 275.735 167.455 275.685C167.095 275.625 166.735 275.555 166.375 275.475C166.015 275.385 165.685 275.265 165.385 275.115C165.085 274.955 164.845 274.74 164.665 274.47C164.485 274.19 164.395 273.82 164.395 273.36C164.395 272.88 164.53 272.46 164.8 272.1C165.07 271.74 165.45 271.465 165.94 271.275C166.44 271.075 167.03 270.975 167.71 270.975C168.23 270.975 168.755 271.04 169.285 271.17C169.825 271.29 170.265 271.465 170.605 271.695L169.99 272.835C169.63 272.595 169.255 272.43 168.865 272.34C168.475 272.25 168.085 272.205 167.695 272.205C167.065 272.205 166.595 272.31 166.285 272.52C165.975 272.72 165.82 272.98 165.82 273.3C165.82 273.57 165.91 273.78 166.09 273.93C166.28 274.07 166.52 274.18 166.81 274.26C167.11 274.34 167.44 274.41 167.8 274.47C168.16 274.52 168.52 274.59 168.88 274.68C169.24 274.76 169.565 274.875 169.855 275.025C170.155 275.175 170.395 275.385 170.575 275.655C170.765 275.925 170.86 276.285 170.86 276.735C170.86 277.215 170.72 277.63 170.44 277.98C170.16 278.33 169.765 278.605 169.255 278.805C168.745 278.995 168.135 279.09 167.425 279.09ZM178.104 270.975C178.754 270.975 179.324 271.1 179.814 271.35C180.314 271.6 180.704 271.98 180.984 272.49C181.264 273 181.404 273.645 181.404 274.425V279H179.964V274.59C179.964 273.82 179.774 273.24 179.394 272.85C179.024 272.46 178.499 272.265 177.819 272.265C177.309 272.265 176.864 272.365 176.484 272.565C176.104 272.765 175.809 273.06 175.599 273.45C175.399 273.84 175.299 274.325 175.299 274.905V279H173.859V267.87H175.299V273.195L175.014 272.625C175.274 272.105 175.674 271.7 176.214 271.41C176.754 271.12 177.384 270.975 178.104 270.975ZM185.269 279V271.05H186.709V279H185.269ZM185.989 269.52C185.709 269.52 185.474 269.43 185.284 269.25C185.104 269.07 185.014 268.85 185.014 268.59C185.014 268.32 185.104 268.095 185.284 267.915C185.474 267.735 185.709 267.645 185.989 267.645C186.269 267.645 186.499 267.735 186.679 267.915C186.869 268.085 186.964 268.3 186.964 268.56C186.964 268.83 186.874 269.06 186.694 269.25C186.514 269.43 186.279 269.52 185.989 269.52ZM194.874 279.09C194.214 279.09 193.609 278.94 193.059 278.64C192.519 278.33 192.084 277.875 191.754 277.275C191.434 276.675 191.274 275.925 191.274 275.025C191.274 274.125 191.429 273.375 191.739 272.775C192.059 272.175 192.489 271.725 193.029 271.425C193.579 271.125 194.194 270.975 194.874 270.975C195.654 270.975 196.344 271.145 196.944 271.485C197.544 271.825 198.019 272.3 198.369 272.91C198.719 273.51 198.894 274.215 198.894 275.025C198.894 275.835 198.719 276.545 198.369 277.155C198.019 277.765 197.544 278.24 196.944 278.58C196.344 278.92 195.654 279.09 194.874 279.09ZM190.659 281.91V271.05H192.039V273.195L191.949 275.04L192.099 276.885V281.91H190.659ZM194.754 277.83C195.264 277.83 195.719 277.715 196.119 277.485C196.529 277.255 196.849 276.93 197.079 276.51C197.319 276.08 197.439 275.585 197.439 275.025C197.439 274.455 197.319 273.965 197.079 273.555C196.849 273.135 196.529 272.81 196.119 272.58C195.719 272.35 195.264 272.235 194.754 272.235C194.254 272.235 193.799 272.35 193.389 272.58C192.989 272.81 192.669 273.135 192.429 273.555C192.199 273.965 192.084 274.455 192.084 275.025C192.084 275.585 192.199 276.08 192.429 276.51C192.669 276.93 192.989 277.255 193.389 277.485C193.799 277.715 194.254 277.83 194.754 277.83ZM210.042 279.09C209.242 279.09 208.622 278.875 208.182 278.445C207.742 278.015 207.522 277.4 207.522 276.6V269.31H208.962V276.54C208.962 276.97 209.067 277.3 209.277 277.53C209.497 277.76 209.807 277.875 210.207 277.875C210.657 277.875 211.032 277.75 211.332 277.5L211.782 278.535C211.562 278.725 211.297 278.865 210.987 278.955C210.687 279.045 210.372 279.09 210.042 279.09ZM206.172 272.235V271.05H211.242V272.235H206.172ZM217.864 279.09C217.064 279.09 216.354 278.915 215.734 278.565C215.114 278.215 214.624 277.735 214.264 277.125C213.904 276.505 213.724 275.805 213.724 275.025C213.724 274.235 213.904 273.535 214.264 272.925C214.624 272.315 215.114 271.84 215.734 271.5C216.354 271.15 217.064 270.975 217.864 270.975C218.654 270.975 219.359 271.15 219.979 271.5C220.609 271.84 221.099 272.315 221.449 272.925C221.809 273.525 221.989 274.225 221.989 275.025C221.989 275.815 221.809 276.515 221.449 277.125C221.099 277.735 220.609 278.215 219.979 278.565C219.359 278.915 218.654 279.09 217.864 279.09ZM217.864 277.83C218.374 277.83 218.829 277.715 219.229 277.485C219.639 277.255 219.959 276.93 220.189 276.51C220.419 276.08 220.534 275.585 220.534 275.025C220.534 274.455 220.419 273.965 220.189 273.555C219.959 273.135 219.639 272.81 219.229 272.58C218.829 272.35 218.374 272.235 217.864 272.235C217.354 272.235 216.899 272.35 216.499 272.58C216.099 272.81 215.779 273.135 215.539 273.555C215.299 273.965 215.179 274.455 215.179 275.025C215.179 275.585 215.299 276.08 215.539 276.51C215.779 276.93 216.099 277.255 216.499 277.485C216.899 277.715 217.354 277.83 217.864 277.83ZM228.465 279.09C227.695 279.09 227.005 278.92 226.395 278.58C225.795 278.24 225.32 277.765 224.97 277.155C224.62 276.545 224.445 275.835 224.445 275.025C224.445 274.215 224.62 273.51 224.97 272.91C225.32 272.3 225.795 271.825 226.395 271.485C227.005 271.145 227.695 270.975 228.465 270.975C229.135 270.975 229.74 271.125 230.28 271.425C230.82 271.725 231.25 272.175 231.57 272.775C231.9 273.375 232.065 274.125 232.065 275.025C232.065 275.925 231.905 276.675 231.585 277.275C231.275 277.875 230.85 278.33 230.31 278.64C229.77 278.94 229.155 279.09 228.465 279.09ZM228.585 277.83C229.085 277.83 229.535 277.715 229.935 277.485C230.345 277.255 230.665 276.93 230.895 276.51C231.135 276.08 231.255 275.585 231.255 275.025C231.255 274.455 231.135 273.965 230.895 273.555C230.665 273.135 230.345 272.81 229.935 272.58C229.535 272.35 229.085 272.235 228.585 272.235C228.075 272.235 227.62 272.35 227.22 272.58C226.82 272.81 226.5 273.135 226.26 273.555C226.02 273.965 225.9 274.455 225.9 275.025C225.9 275.585 226.02 276.08 226.26 276.51C226.5 276.93 226.82 277.255 227.22 277.485C227.62 277.715 228.075 277.83 228.585 277.83ZM231.3 279V276.855L231.39 275.01L231.24 273.165V267.87H232.68V279H231.3ZM241.54 279V277.32L241.465 277.005V274.14C241.465 273.53 241.285 273.06 240.925 272.73C240.575 272.39 240.045 272.22 239.335 272.22C238.865 272.22 238.405 272.3 237.955 272.46C237.505 272.61 237.125 272.815 236.815 273.075L236.215 271.995C236.625 271.665 237.115 271.415 237.685 271.245C238.265 271.065 238.87 270.975 239.5 270.975C240.59 270.975 241.43 271.24 242.02 271.77C242.61 272.3 242.905 273.11 242.905 274.2V279H241.54ZM238.93 279.09C238.34 279.09 237.82 278.99 237.37 278.79C236.93 278.59 236.59 278.315 236.35 277.965C236.11 277.605 235.99 277.2 235.99 276.75C235.99 276.32 236.09 275.93 236.29 275.58C236.5 275.23 236.835 274.95 237.295 274.74C237.765 274.53 238.395 274.425 239.185 274.425H241.705V275.46H239.245C238.525 275.46 238.04 275.58 237.79 275.82C237.54 276.06 237.415 276.35 237.415 276.69C237.415 277.08 237.57 277.395 237.88 277.635C238.19 277.865 238.62 277.98 239.17 277.98C239.71 277.98 240.18 277.86 240.58 277.62C240.99 277.38 241.285 277.03 241.465 276.57L241.75 277.56C241.56 278.03 241.225 278.405 240.745 278.685C240.265 278.955 239.66 279.09 238.93 279.09ZM246.968 282C246.588 282 246.218 281.935 245.858 281.805C245.498 281.685 245.188 281.505 244.928 281.265L245.543 280.185C245.743 280.375 245.963 280.52 246.203 280.62C246.443 280.72 246.698 280.77 246.968 280.77C247.318 280.77 247.608 280.68 247.838 280.5C248.068 280.32 248.283 280 248.483 279.54L248.978 278.445L249.128 278.265L252.248 271.05H253.658L249.803 279.795C249.573 280.355 249.313 280.795 249.023 281.115C248.743 281.435 248.433 281.66 248.093 281.79C247.753 281.93 247.378 282 246.968 282ZM248.858 279.255L245.228 271.05H246.728L249.818 278.13L248.858 279.255ZM256.277 275.685L256.007 268.5H257.702L257.417 275.685H256.277ZM256.862 279.09C256.582 279.09 256.347 278.995 256.157 278.805C255.967 278.615 255.872 278.39 255.872 278.13C255.872 277.85 255.967 277.62 256.157 277.44C256.347 277.26 256.582 277.17 256.862 277.17C257.142 277.17 257.372 277.26 257.552 277.44C257.732 277.62 257.822 277.85 257.822 278.13C257.822 278.39 257.732 278.615 257.552 278.805C257.372 278.995 257.142 279.09 256.862 279.09Z" fill="black"/>
<rect x="85" y="136" width="169" height="42" fill="#00379E"/>
<path d="M88.8736 164V151.536H92.5786C93.4272 151.536 94.1682 151.637 94.8016 151.84C95.4476 152.043 95.9479 152.366 96.3026 152.809C96.6699 153.252 96.8536 153.841 96.8536 154.576C96.8536 155.197 96.6952 155.76 96.3786 156.267C96.0746 156.761 95.6249 157.103 95.0296 157.293V157.369C95.7769 157.508 96.3849 157.825 96.8536 158.319C97.3349 158.813 97.5756 159.491 97.5756 160.352C97.5756 161.163 97.3729 161.84 96.9676 162.385C96.5749 162.93 96.0239 163.335 95.3146 163.601C94.6052 163.867 93.7819 164 92.8446 164H88.8736ZM90.4506 156.837H92.2936C93.3576 156.837 94.1239 156.653 94.5926 156.286C95.0612 155.919 95.2956 155.418 95.2956 154.785C95.2956 154.063 95.0486 153.55 94.5546 153.246C94.0732 152.942 93.3449 152.79 92.3696 152.79H90.4506V156.837ZM90.4506 162.746H92.6166C93.6932 162.746 94.5292 162.55 95.1246 162.157C95.7199 161.752 96.0176 161.131 96.0176 160.295C96.0176 159.522 95.7199 158.959 95.1246 158.604C94.5419 158.237 93.7059 158.053 92.6166 158.053H90.4506V162.746ZM102.589 164.228C101.614 164.228 100.898 163.924 100.442 163.316C99.9865 162.695 99.7585 161.796 99.7585 160.618V154.766H101.335V160.409C101.335 161.27 101.468 161.897 101.734 162.29C102.013 162.683 102.456 162.879 103.064 162.879C103.546 162.879 103.97 162.759 104.337 162.518C104.717 162.265 105.123 161.866 105.553 161.321V154.766H107.111V164H105.819L105.686 162.556H105.629C105.199 163.063 104.743 163.468 104.261 163.772C103.78 164.076 103.223 164.228 102.589 164.228ZM110.378 167.971C110.176 167.971 109.979 167.952 109.789 167.914C109.612 167.876 109.447 167.832 109.295 167.781L109.599 166.546C109.701 166.571 109.815 166.597 109.941 166.622C110.068 166.66 110.188 166.679 110.302 166.679C110.822 166.679 111.252 166.489 111.594 166.109C111.936 165.742 112.202 165.273 112.392 164.703L112.601 164.019L108.896 154.766H110.511L112.392 159.877C112.532 160.27 112.677 160.694 112.829 161.15C112.994 161.606 113.146 162.049 113.285 162.48H113.361C113.501 162.062 113.634 161.625 113.76 161.169C113.887 160.713 114.014 160.282 114.14 159.877L115.793 154.766H117.313L113.836 164.76C113.621 165.368 113.361 165.913 113.057 166.394C112.766 166.875 112.399 167.255 111.955 167.534C111.525 167.825 110.999 167.971 110.378 167.971ZM124.419 164L121.778 151.536H123.412L124.723 158.319C124.837 158.99 124.958 159.662 125.084 160.333C125.211 161.004 125.331 161.676 125.445 162.347H125.521C125.661 161.676 125.806 161.004 125.958 160.333C126.11 159.649 126.256 158.978 126.395 158.319L128.124 151.536H129.568L131.297 158.319C131.449 158.978 131.601 159.649 131.753 160.333C131.905 161.004 132.057 161.676 132.209 162.347H132.285C132.399 161.676 132.513 161.004 132.627 160.333C132.741 159.649 132.862 158.978 132.988 158.319L134.299 151.536H135.819L133.235 164H131.335L129.454 156.495C129.34 156.014 129.233 155.545 129.131 155.089C129.043 154.62 128.948 154.145 128.846 153.664H128.77C128.682 154.145 128.58 154.62 128.466 155.089C128.352 155.545 128.245 156.014 128.143 156.495L126.3 164H124.419ZM141.579 164.228C140.755 164.228 140.008 164.038 139.337 163.658C138.665 163.265 138.133 162.708 137.741 161.986C137.348 161.264 137.152 160.403 137.152 159.402C137.152 158.389 137.348 157.521 137.741 156.799C138.146 156.077 138.665 155.52 139.299 155.127C139.932 154.734 140.597 154.538 141.294 154.538C142.472 154.538 143.377 154.931 144.011 155.716C144.657 156.501 144.98 157.553 144.98 158.87C144.98 159.035 144.973 159.199 144.961 159.364C144.961 159.516 144.948 159.649 144.923 159.763H138.691C138.754 160.738 139.058 161.517 139.603 162.1C140.16 162.683 140.882 162.974 141.769 162.974C142.212 162.974 142.617 162.911 142.985 162.784C143.365 162.645 143.726 162.467 144.068 162.252L144.619 163.278C144.226 163.531 143.776 163.753 143.27 163.943C142.776 164.133 142.212 164.228 141.579 164.228ZM138.672 158.642H143.612C143.612 157.705 143.409 156.995 143.004 156.514C142.611 156.02 142.054 155.773 141.332 155.773C140.686 155.773 140.103 156.026 139.584 156.533C139.077 157.027 138.773 157.73 138.672 158.642ZM149.13 164.228C148.357 164.228 147.711 164 147.192 163.544C146.685 163.075 146.432 162.429 146.432 161.606C146.432 160.593 146.882 159.82 147.781 159.288C148.693 158.743 150.131 158.363 152.094 158.148C152.094 157.755 152.037 157.382 151.923 157.027C151.822 156.672 151.632 156.387 151.353 156.172C151.087 155.944 150.701 155.83 150.194 155.83C149.662 155.83 149.162 155.931 148.693 156.134C148.224 156.337 147.806 156.565 147.439 156.818L146.831 155.735C147.262 155.456 147.787 155.19 148.408 154.937C149.041 154.671 149.725 154.538 150.46 154.538C151.587 154.538 152.404 154.886 152.911 155.583C153.418 156.267 153.671 157.185 153.671 158.338V164H152.379L152.246 162.898H152.189C151.758 163.253 151.283 163.563 150.764 163.829C150.257 164.095 149.713 164.228 149.13 164.228ZM149.586 162.974C150.029 162.974 150.447 162.866 150.84 162.651C151.233 162.436 151.651 162.132 152.094 161.739V159.174C150.561 159.364 149.485 159.649 148.864 160.029C148.256 160.409 147.952 160.897 147.952 161.492C147.952 162.011 148.11 162.391 148.427 162.632C148.744 162.86 149.13 162.974 149.586 162.974ZM159.223 164.228C158.235 164.228 157.545 163.943 157.152 163.373C156.772 162.803 156.582 162.062 156.582 161.15V156.039H155.214V154.861L156.658 154.766L156.848 152.182H158.159V154.766H160.648V156.039H158.159V161.169C158.159 161.739 158.261 162.182 158.463 162.499C158.679 162.803 159.052 162.955 159.584 162.955C159.749 162.955 159.926 162.93 160.116 162.879C160.306 162.816 160.477 162.759 160.629 162.708L160.933 163.886C160.68 163.975 160.401 164.051 160.097 164.114C159.806 164.19 159.515 164.228 159.223 164.228ZM162.736 164V150.472H164.294V154.158L164.237 156.058C164.681 155.64 165.143 155.285 165.624 154.994C166.118 154.69 166.682 154.538 167.315 154.538C168.291 154.538 169 154.848 169.443 155.469C169.899 156.077 170.127 156.97 170.127 158.148V164H168.569V158.357C168.569 157.496 168.43 156.869 168.151 156.476C167.873 156.083 167.429 155.887 166.821 155.887C166.353 155.887 165.928 156.007 165.548 156.248C165.181 156.489 164.763 156.843 164.294 157.312V164H162.736ZM176.814 164.228C175.991 164.228 175.244 164.038 174.572 163.658C173.901 163.265 173.369 162.708 172.976 161.986C172.584 161.264 172.387 160.403 172.387 159.402C172.387 158.389 172.584 157.521 172.976 156.799C173.382 156.077 173.901 155.52 174.534 155.127C175.168 154.734 175.833 154.538 176.529 154.538C177.707 154.538 178.613 154.931 179.246 155.716C179.892 156.501 180.215 157.553 180.215 158.87C180.215 159.035 180.209 159.199 180.196 159.364C180.196 159.516 180.184 159.649 180.158 159.763H173.926C173.99 160.738 174.294 161.517 174.838 162.1C175.396 162.683 176.118 162.974 177.004 162.974C177.448 162.974 177.853 162.911 178.22 162.784C178.6 162.645 178.961 162.467 179.303 162.252L179.854 163.278C179.462 163.531 179.012 163.753 178.505 163.943C178.011 164.133 177.448 164.228 176.814 164.228ZM173.907 158.642H178.847C178.847 157.705 178.645 156.995 178.239 156.514C177.847 156.02 177.289 155.773 176.567 155.773C175.921 155.773 175.339 156.026 174.819 156.533C174.313 157.027 174.009 157.73 173.907 158.642ZM182.497 164V154.766H183.789L183.922 156.438H183.979C184.296 155.855 184.682 155.393 185.138 155.051C185.594 154.709 186.082 154.538 186.601 154.538C186.968 154.538 187.298 154.601 187.589 154.728L187.285 156.096C187.133 156.045 186.994 156.007 186.867 155.982C186.74 155.957 186.582 155.944 186.392 155.944C185.999 155.944 185.588 156.102 185.157 156.419C184.739 156.736 184.372 157.287 184.055 158.072V164H182.497ZM191.516 164L187.526 151.536H189.217L191.212 158.262C191.44 158.997 191.636 159.687 191.801 160.333C191.978 160.966 192.187 161.65 192.428 162.385H192.504C192.732 161.65 192.935 160.966 193.112 160.333C193.289 159.687 193.486 158.997 193.701 158.262L195.696 151.536H197.311L193.359 164H191.516ZM202.175 164.228C201.428 164.228 200.725 164.038 200.066 163.658C199.42 163.278 198.894 162.727 198.489 162.005C198.096 161.283 197.9 160.415 197.9 159.402C197.9 158.363 198.096 157.483 198.489 156.761C198.894 156.039 199.42 155.488 200.066 155.108C200.725 154.728 201.428 154.538 202.175 154.538C202.935 154.538 203.638 154.728 204.284 155.108C204.93 155.488 205.449 156.039 205.842 156.761C206.247 157.483 206.45 158.363 206.45 159.402C206.45 160.415 206.247 161.283 205.842 162.005C205.449 162.727 204.93 163.278 204.284 163.658C203.638 164.038 202.935 164.228 202.175 164.228ZM202.175 162.936C202.973 162.936 203.613 162.613 204.094 161.967C204.588 161.308 204.835 160.453 204.835 159.402C204.835 158.338 204.588 157.477 204.094 156.818C203.613 156.159 202.973 155.83 202.175 155.83C201.39 155.83 200.75 156.159 200.256 156.818C199.762 157.477 199.515 158.338 199.515 159.402C199.515 160.453 199.762 161.308 200.256 161.967C200.75 162.613 201.39 162.936 202.175 162.936ZM208.96 167.971C208.757 167.971 208.561 167.952 208.371 167.914C208.193 167.876 208.029 167.832 207.877 167.781L208.181 166.546C208.282 166.571 208.396 166.597 208.523 166.622C208.649 166.66 208.77 166.679 208.884 166.679C209.403 166.679 209.834 166.489 210.176 166.109C210.518 165.742 210.784 165.273 210.974 164.703L211.183 164.019L207.478 154.766H209.093L210.974 159.877C211.113 160.27 211.259 160.694 211.411 161.15C211.575 161.606 211.727 162.049 211.867 162.48H211.943C212.082 162.062 212.215 161.625 212.342 161.169C212.468 160.713 212.595 160.282 212.722 159.877L214.375 154.766H215.895L212.418 164.76C212.202 165.368 211.943 165.913 211.639 166.394C211.347 166.875 210.98 167.255 210.537 167.534C210.106 167.825 209.58 167.971 208.96 167.971ZM221.345 164.228C220.522 164.228 219.775 164.038 219.103 163.658C218.432 163.265 217.9 162.708 217.507 161.986C217.115 161.264 216.918 160.403 216.918 159.402C216.918 158.389 217.115 157.521 217.507 156.799C217.913 156.077 218.432 155.52 219.065 155.127C219.699 154.734 220.364 154.538 221.06 154.538C222.238 154.538 223.144 154.931 223.777 155.716C224.423 156.501 224.746 157.553 224.746 158.87C224.746 159.035 224.74 159.199 224.727 159.364C224.727 159.516 224.715 159.649 224.689 159.763H218.457C218.521 160.738 218.825 161.517 219.369 162.1C219.927 162.683 220.649 162.974 221.535 162.974C221.979 162.974 222.384 162.911 222.751 162.784C223.131 162.645 223.492 162.467 223.834 162.252L224.385 163.278C223.993 163.531 223.543 163.753 223.036 163.943C222.542 164.133 221.979 164.228 221.345 164.228ZM218.438 158.642H223.378C223.378 157.705 223.176 156.995 222.77 156.514C222.378 156.02 221.82 155.773 221.098 155.773C220.452 155.773 219.87 156.026 219.35 156.533C218.844 157.027 218.54 157.73 218.438 158.642ZM229.726 164.228C228.751 164.228 228.035 163.924 227.579 163.316C227.123 162.695 226.895 161.796 226.895 160.618V154.766H228.472V160.409C228.472 161.27 228.605 161.897 228.871 162.29C229.15 162.683 229.593 162.879 230.201 162.879C230.683 162.879 231.107 162.759 231.474 162.518C231.854 162.265 232.26 161.866 232.69 161.321V154.766H234.248V164H232.956L232.823 162.556H232.766C232.336 163.063 231.88 163.468 231.398 163.772C230.917 164.076 230.36 164.228 229.726 164.228ZM237.363 164V154.766H238.655L238.788 156.438H238.845C239.162 155.855 239.548 155.393 240.004 155.051C240.46 154.709 240.948 154.538 241.467 154.538C241.835 154.538 242.164 154.601 242.455 154.728L242.151 156.096C241.999 156.045 241.86 156.007 241.733 155.982C241.607 155.957 241.448 155.944 241.258 155.944C240.866 155.944 240.454 156.102 240.023 156.419C239.605 156.736 239.238 157.287 238.921 158.072V164H237.363ZM246.496 162.024V158.319H243.038V157.141H246.496V153.436H247.731V157.141H251.189V158.319H247.731V162.024H246.496Z" fill="white"/>
<path d="M105.618 195.492H107.353L111.778 206.504L116.194 195.492H117.938L112.446 209H111.092L105.618 195.492ZM105.052 195.492H106.583L106.833 203.73V209H105.052V195.492ZM116.964 195.492H118.495V209H116.714V203.73L116.964 195.492ZM132.04 201.819V202.673C132.04 203.687 131.913 204.596 131.66 205.4C131.406 206.204 131.041 206.888 130.565 207.451C130.089 208.014 129.517 208.443 128.849 208.74C128.187 209.037 127.445 209.186 126.622 209.186C125.824 209.186 125.091 209.037 124.423 208.74C123.762 208.443 123.186 208.014 122.698 207.451C122.215 206.888 121.841 206.204 121.575 205.4C121.309 204.596 121.176 203.687 121.176 202.673V201.819C121.176 200.805 121.306 199.899 121.566 199.101C121.832 198.297 122.206 197.614 122.688 197.051C123.171 196.482 123.743 196.049 124.405 195.752C125.073 195.455 125.806 195.307 126.604 195.307C127.426 195.307 128.168 195.455 128.83 195.752C129.498 196.049 130.07 196.482 130.546 197.051C131.029 197.614 131.397 198.297 131.65 199.101C131.91 199.899 132.04 200.805 132.04 201.819ZM130.268 202.673V201.801C130.268 200.997 130.185 200.285 130.018 199.667C129.857 199.049 129.619 198.529 129.303 198.108C128.988 197.688 128.601 197.369 128.144 197.153C127.692 196.936 127.179 196.828 126.604 196.828C126.047 196.828 125.543 196.936 125.091 197.153C124.646 197.369 124.263 197.688 123.941 198.108C123.625 198.529 123.381 199.049 123.208 199.667C123.035 200.285 122.948 200.997 122.948 201.801V202.673C122.948 203.483 123.035 204.201 123.208 204.825C123.381 205.444 123.629 205.966 123.95 206.393C124.278 206.814 124.665 207.132 125.11 207.349C125.561 207.565 126.065 207.673 126.622 207.673C127.203 207.673 127.72 207.565 128.171 207.349C128.623 207.132 129.003 206.814 129.312 206.393C129.628 205.966 129.866 205.444 130.027 204.825C130.188 204.201 130.268 203.483 130.268 202.673ZM134.721 195.492H139.193C140.207 195.492 141.064 195.647 141.763 195.956C142.468 196.265 143.003 196.723 143.368 197.329C143.739 197.929 143.924 198.668 143.924 199.546C143.924 200.165 143.798 200.731 143.544 201.244C143.297 201.751 142.938 202.184 142.468 202.543C142.004 202.896 141.447 203.158 140.798 203.332L140.297 203.526H136.094L136.076 202.07H139.249C139.892 202.07 140.427 201.958 140.854 201.736C141.28 201.507 141.602 201.201 141.818 200.817C142.035 200.434 142.143 200.01 142.143 199.546C142.143 199.027 142.041 198.572 141.837 198.183C141.633 197.793 141.311 197.493 140.872 197.283C140.439 197.066 139.879 196.958 139.193 196.958H136.512V209H134.721V195.492ZM142.616 209L139.332 202.877L141.197 202.868L144.527 208.889V209H142.616ZM155.011 207.543V209H147.858V207.543H155.011ZM148.22 195.492V209H146.429V195.492H148.22ZM154.064 201.3V202.756H147.858V201.3H154.064ZM154.918 195.492V196.958H147.858V195.492H154.918ZM165.596 209H162.776L162.794 207.543H165.596C166.561 207.543 167.365 207.342 168.008 206.94C168.652 206.532 169.134 205.963 169.456 205.233C169.783 204.497 169.947 203.638 169.947 202.654V201.829C169.947 201.056 169.854 200.369 169.669 199.769C169.483 199.163 169.211 198.653 168.853 198.238C168.494 197.818 168.055 197.499 167.535 197.283C167.022 197.066 166.431 196.958 165.763 196.958H162.72V195.492H165.763C166.648 195.492 167.455 195.641 168.185 195.938C168.914 196.228 169.542 196.652 170.068 197.208C170.6 197.759 171.008 198.427 171.292 199.212C171.577 199.992 171.719 200.87 171.719 201.847V202.654C171.719 203.632 171.577 204.513 171.292 205.298C171.008 206.078 170.597 206.743 170.059 207.293C169.527 207.843 168.883 208.267 168.129 208.564C167.381 208.855 166.536 209 165.596 209ZM163.731 195.492V209H161.941V195.492H163.731ZM182.991 207.543V209H175.838V207.543H182.991ZM176.2 195.492V209H174.41V195.492H176.2ZM182.045 201.3V202.756H175.838V201.3H182.045ZM182.898 195.492V196.958H175.838V195.492H182.898ZM190.385 195.492V209H188.623V195.492H190.385ZM194.727 195.492V196.958H184.29V195.492H194.727ZM200.989 196.689L196.518 209H194.69L199.839 195.492H201.017L200.989 196.689ZM204.737 209L200.256 196.689L200.229 195.492H201.407L206.574 209H204.737ZM204.505 204V205.465H196.917V204H204.505ZM210.304 195.492V209H208.513V195.492H210.304ZM221.752 207.543V209H214.998V207.543H221.752ZM215.351 195.492V209H213.56V195.492H215.351ZM231.001 205.586C231.001 205.271 230.952 204.992 230.853 204.751C230.76 204.504 230.593 204.281 230.352 204.083C230.117 203.885 229.789 203.696 229.369 203.517C228.954 203.338 228.429 203.155 227.792 202.97C227.124 202.772 226.521 202.552 225.982 202.311C225.444 202.064 224.984 201.782 224.6 201.467C224.217 201.151 223.923 200.79 223.719 200.381C223.515 199.973 223.413 199.506 223.413 198.98C223.413 198.455 223.521 197.969 223.737 197.524C223.954 197.079 224.263 196.692 224.665 196.364C225.073 196.03 225.559 195.771 226.122 195.585C226.684 195.399 227.312 195.307 228.005 195.307C229.019 195.307 229.879 195.501 230.584 195.891C231.295 196.275 231.836 196.779 232.208 197.403C232.579 198.022 232.764 198.684 232.764 199.389H230.983C230.983 198.882 230.875 198.433 230.658 198.043C230.442 197.648 230.114 197.338 229.675 197.116C229.236 196.887 228.679 196.772 228.005 196.772C227.368 196.772 226.842 196.868 226.428 197.06C226.013 197.252 225.704 197.512 225.5 197.839C225.302 198.167 225.203 198.541 225.203 198.962C225.203 199.246 225.262 199.506 225.379 199.741C225.503 199.97 225.692 200.183 225.945 200.381C226.205 200.579 226.533 200.762 226.929 200.929C227.331 201.096 227.81 201.257 228.367 201.411C229.134 201.628 229.795 201.869 230.352 202.135C230.909 202.401 231.366 202.701 231.725 203.035C232.09 203.362 232.359 203.737 232.532 204.157C232.712 204.572 232.801 205.042 232.801 205.567C232.801 206.118 232.69 206.616 232.467 207.061C232.245 207.506 231.926 207.887 231.512 208.202C231.097 208.518 230.599 208.762 230.018 208.935C229.443 209.102 228.8 209.186 228.088 209.186C227.464 209.186 226.848 209.099 226.242 208.926C225.642 208.753 225.095 208.493 224.6 208.146C224.111 207.8 223.719 207.373 223.422 206.866C223.131 206.353 222.986 205.759 222.986 205.085H224.767C224.767 205.549 224.857 205.948 225.036 206.282C225.215 206.61 225.46 206.882 225.769 207.098C226.084 207.315 226.44 207.475 226.836 207.581C227.238 207.68 227.655 207.729 228.088 207.729C228.713 207.729 229.242 207.642 229.675 207.469C230.108 207.296 230.436 207.049 230.658 206.727C230.887 206.405 231.001 206.025 231.001 205.586Z" fill="#00379E"/>
<path d="M103.484 210.855H233.516V211.783H103.484V210.855Z" fill="#00379E"/>
<path fill-rule="evenodd" clip-rule="evenodd" d="M43.8127 104.064C43.8127 104.064 43.997 105 44.0599 105.009C47.4537 105.493 50 107.472 50 111C50 114.866 46.866 118 43 118H25C21.134 118 18 114.866 18 111C18 107.472 20.6092 104.554 24.003 104.07C24.0659 104.061 24.1275 104.06 24.1873 104.064C25.0889 99.4677 29.1395 96 34 96C38.8605 96 42.9111 99.4677 43.8127 104.064Z" fill="#F3F3F3"/>
<path d="M25.5294 118C21.371 118 18 114.717 18 110.667C18 107.129 20.5718 104.177 23.9938 103.486C25.1702 99.1758 29.2043 96 34 96C39.4215 96 43.8697 100.059 44.3161 105.227C47.5268 105.656 50 108.338 50 111.583C50 115.127 47.0503 118 43.4118 118H25.5294Z" stroke="#231815" stroke-width="2" stroke-linecap="round" stroke-linejoin="round"/>
<path fill-rule="evenodd" clip-rule="evenodd" d="M315.813 104.064C315.813 104.064 315.997 105 316.06 105.009C319.454 105.493 322 107.472 322 111C322 114.866 318.866 118 315 118H297C293.134 118 290 114.866 290 111C290 107.472 292.609 104.554 296.003 104.07C296.066 104.061 296.127 104.06 296.187 104.064C297.089 99.4677 301.139 96 306 96C310.861 96 314.911 99.4677 315.813 104.064Z" fill="#F3F3F3"/>
<path d="M297.529 118C293.371 118 290 114.717 290 110.667C290 107.129 292.572 104.177 295.994 103.486C297.17 99.1758 301.204 96 306 96C311.421 96 315.87 100.059 316.316 105.227C319.527 105.656 322 108.338 322 111.583C322 115.127 319.05 118 315.412 118H297.529Z" stroke="#231815" stroke-width="2" stroke-linecap="round" stroke-linejoin="round"/>
</svg>
