<svg width="89" height="77" viewBox="0 0 89 77" fill="none" xmlns="http://www.w3.org/2000/svg">
<g clip-path="url(#clip0_386_876)">
<rect x="77.5225" y="26.7715" width="11.2375" height="5.43913" rx="2.71956" fill="url(#paint0_linear_386_876)"/>
<line x1="83.8053" y1="31.6834" x2="82.4814" y2="31.6834" stroke="url(#paint1_linear_386_876)" stroke-width="7.10417" stroke-linecap="round" stroke-linejoin="round"/>
</g>
<g clip-path="url(#clip1_386_876)">
<rect x="29.7637" y="26.7715" width="11.2375" height="5.43913" rx="2.71956" fill="url(#paint2_linear_386_876)"/>
<line x1="36.0465" y1="31.6834" x2="34.7226" y2="31.6834" stroke="url(#paint3_linear_386_876)" stroke-width="7.10417" stroke-linecap="round" stroke-linejoin="round"/>
</g>
<rect x="77.5225" y="26.7715" width="11.2375" height="5.43913" rx="2.71956" fill="url(#paint4_linear_386_876)"/>
<rect x="29.7637" y="26.7715" width="11.2375" height="5.43913" rx="2.71956" fill="url(#paint5_linear_386_876)"/>
<rect width="11.1488" height="5.48459" rx="2.74229" transform="matrix(0.872917 0.487868 -0.512231 0.858848 76.4814 35.9745)" fill="url(#paint6_linear_386_876)"/>
<rect width="10.9692" height="5.57439" rx="2.78719" transform="matrix(0.512231 0.858848 -0.872918 0.487868 46.9443 3.40161)" fill="url(#paint7_linear_386_876)"/>
<g clip-path="url(#clip2_386_876)">
<rect x="62.0723" y="47.1683" width="10.8783" height="5.61875" rx="2.80938" transform="rotate(90 62.0723 47.1683)" fill="url(#paint8_linear_386_876)"/>
</g>
<g clip-path="url(#clip3_386_876)">
<rect x="62.0723" y="0.935699" width="10.8783" height="5.61875" rx="2.80938" transform="rotate(90 62.0723 0.935699)" fill="url(#paint9_linear_386_876)"/>
</g>
<rect width="10.9692" height="5.57439" rx="2.78719" transform="matrix(-0.512231 0.858848 -0.872918 -0.487868 52.5645 46.1598)" fill="url(#paint10_linear_386_876)"/>
<rect width="10.9692" height="5.57439" rx="2.78719" transform="matrix(-0.512231 0.858848 -0.872918 -0.487868 76.4434 6.12115)" fill="url(#paint11_linear_386_876)"/>
<rect width="11.1488" height="5.48458" rx="2.74229" transform="matrix(-0.872918 0.487868 -0.512231 -0.858848 44.8535 40.6849)" fill="url(#paint12_linear_386_876)"/>
<rect width="11.1488" height="5.48459" rx="2.74229" transform="matrix(-0.872918 0.487868 -0.512231 -0.858848 86.2119 17.5686)" fill="url(#paint13_linear_386_876)"/>
<path d="M73.3066 29.4911C73.3066 37.001 67.0176 43.089 59.2598 43.089C51.5019 43.089 45.2129 37.001 45.2129 29.4911C45.2129 21.9813 51.5019 15.8933 59.2598 15.8933C67.0176 15.8933 73.3066 21.9813 73.3066 29.4911Z" fill="url(#paint14_linear_386_876)"/>
<path fill-rule="evenodd" clip-rule="evenodd" d="M40.5277 24.964C40.5277 24.964 40.7782 26.1956 40.8637 26.2074C45.477 26.8443 48.9385 29.4493 48.9385 34.0912C48.9385 39.1785 44.6782 43.3026 39.4228 43.3026H14.9541C9.69877 43.3026 5.43848 39.1785 5.43848 34.0912C5.43848 29.4493 8.98539 25.6093 13.5988 24.9725C13.6842 24.9607 13.768 24.9581 13.8493 24.964C15.0749 18.9156 20.5812 14.3524 27.1885 14.3524C33.7957 14.3524 39.302 18.9156 40.5277 24.964Z" fill="#C29CCE"/>
<g clip-path="url(#clip4_386_876)">
<path fill-rule="evenodd" clip-rule="evenodd" d="M61.4048 36.2633C61.4048 36.2633 61.7388 37.9055 61.8527 37.9212C68.0039 38.7703 72.6191 42.2436 72.6191 48.4328C72.6191 55.2159 66.9388 60.7147 59.9316 60.7147H27.3066C20.2995 60.7147 14.6191 55.2159 14.6191 48.4328C14.6191 42.2436 19.3484 37.1237 25.4995 36.2746C25.6135 36.2588 25.7252 36.2555 25.8335 36.2633C27.4677 28.1988 34.8094 22.1145 43.6191 22.1145C52.4288 22.1145 59.7706 28.1988 61.4048 36.2633Z" fill="#00379E"/>
<path d="M59.9316 60.7147H60.678C67.2729 60.7147 72.6191 55.6742 72.6191 49.4563C72.6191 43.7627 68.1364 39.0563 62.3171 38.3031C61.5079 29.2358 53.4456 22.1145 43.6191 22.1145C34.9269 22.1145 27.6151 27.6867 25.4829 35.249C19.2806 36.4608 14.6191 41.6411 14.6191 47.848C14.6191 54.6499 20.2173 60.2192 27.3066 60.6834" stroke="white" stroke-width="3" stroke-linecap="round" stroke-linejoin="round"/>
</g>
<path d="M48.2521 56.088C48.4974 56.088 48.6734 56.1413 48.7801 56.248C48.8974 56.3547 48.9561 56.4933 48.9561 56.664C48.9561 56.9413 48.8707 57.1867 48.7001 57.4C48.5401 57.6133 48.2841 57.7253 47.9321 57.736C47.0894 57.7467 46.3321 57.6827 45.6601 57.544C44.9134 59.1333 44.0121 60.456 42.9561 61.512C41.9107 62.5573 40.8761 63.08 39.8521 63.08C38.9134 63.08 38.2094 62.584 37.7401 61.592C37.2707 60.5893 37.0041 59.2507 36.9401 57.576C36.3001 59.432 35.5747 60.8133 34.7641 61.72C33.9641 62.6267 33.1107 63.08 32.2041 63.08C31.1801 63.08 30.4067 62.4453 29.8841 61.176C29.3614 59.896 29.1001 58.1787 29.1001 56.024C29.1001 54.456 29.2387 52.7333 29.5161 50.856C29.5907 50.3227 29.7241 49.9547 29.9161 49.752C30.1187 49.5387 30.4334 49.432 30.8601 49.432C31.1801 49.432 31.4254 49.5013 31.5961 49.64C31.7774 49.7787 31.8681 50.0347 31.8681 50.408C31.8681 50.4827 31.8574 50.6267 31.8361 50.84C31.5161 53.0267 31.3561 54.888 31.3561 56.424C31.3561 57.8533 31.4787 58.9573 31.7241 59.736C31.9694 60.5147 32.3001 60.904 32.7161 60.904C33.0894 60.904 33.5374 60.5147 34.0601 59.736C34.5934 58.9467 35.1214 57.784 35.6441 56.248C36.1667 54.7013 36.6094 52.8613 36.9721 50.728C37.0574 50.2373 37.2121 49.9013 37.4361 49.72C37.6707 49.528 37.9854 49.432 38.3801 49.432C38.7107 49.432 38.9507 49.5067 39.1001 49.656C39.2601 49.7947 39.3401 50.008 39.3401 50.296C39.3401 50.4667 39.3294 50.6 39.3081 50.696C39.0094 52.4347 38.8601 54.1733 38.8601 55.912C38.8601 57.096 38.8974 58.04 38.9721 58.744C39.0574 59.448 39.2121 59.9867 39.4361 60.36C39.6707 60.7227 40.0067 60.904 40.4441 60.904C40.9561 60.904 41.5267 60.52 42.1561 59.752C42.7854 58.9733 43.3614 58.008 43.8841 56.856C43.2334 56.4507 42.7427 55.928 42.4121 55.288C42.0814 54.6373 41.9161 53.8907 41.9161 53.048C41.9161 52.2053 42.0441 51.496 42.3001 50.92C42.5667 50.3333 42.9241 49.896 43.3721 49.608C43.8307 49.32 44.3374 49.176 44.8921 49.176C45.5747 49.176 46.1134 49.4213 46.5081 49.912C46.9134 50.4027 47.1161 51.0747 47.1161 51.928C47.1161 53.1333 46.8547 54.472 46.3321 55.944C46.8761 56.04 47.5161 56.088 48.2521 56.088ZM43.5321 52.936C43.5321 53.9813 43.8681 54.7547 44.5401 55.256C44.9561 54.0613 45.1641 53.0747 45.1641 52.296C45.1641 51.848 45.1054 51.5227 44.9881 51.32C44.8707 51.1067 44.7107 51 44.5081 51C44.2201 51 43.9854 51.1707 43.8041 51.512C43.6227 51.8427 43.5321 52.3173 43.5321 52.936ZM60.4568 56.088C60.7021 56.088 60.8781 56.1413 60.9848 56.248C61.1021 56.3547 61.1608 56.4933 61.1608 56.664C61.1608 56.9413 61.0755 57.1867 60.9048 57.4C60.7448 57.6133 60.4888 57.7253 60.1368 57.736C59.2835 57.7573 58.5261 57.6933 57.8648 57.544C57.1075 59.1333 56.1901 60.456 55.1128 61.512C54.0461 62.5573 52.9741 63.08 51.8968 63.08C50.7875 63.08 49.9608 62.4347 49.4168 61.144C48.8728 59.8533 48.6008 58.1093 48.6008 55.912C48.6008 54.0347 48.7341 52.3493 49.0008 50.856C49.0968 50.3013 49.2301 49.928 49.4008 49.736C49.5821 49.5333 49.8861 49.432 50.3128 49.432C51.0168 49.432 51.3688 49.736 51.3688 50.344C51.3688 50.408 51.3581 50.5253 51.3368 50.696C51.0168 52.616 50.8568 54.3547 50.8568 55.912C50.8568 57.544 50.9901 58.7867 51.2568 59.64C51.5341 60.4827 51.9448 60.904 52.4888 60.904C53.0435 60.904 53.6461 60.52 54.2968 59.752C54.9475 58.984 55.5448 58.0187 56.0888 56.856C55.4381 56.4507 54.9475 55.928 54.6168 55.288C54.2861 54.6373 54.1208 53.8907 54.1208 53.048C54.1208 52.2053 54.2488 51.496 54.5048 50.92C54.7715 50.3333 55.1288 49.896 55.5768 49.608C56.0355 49.32 56.5421 49.176 57.0968 49.176C57.7795 49.176 58.3181 49.4213 58.7128 49.912C59.1181 50.4027 59.3208 51.0747 59.3208 51.928C59.3208 53.1547 59.0541 54.4933 58.5208 55.944C59.0861 56.04 59.7315 56.088 60.4568 56.088ZM55.7368 52.936C55.7368 53.9813 56.0728 54.7547 56.7448 55.256C57.1608 54.0613 57.3688 53.0747 57.3688 52.296C57.3688 51.848 57.3101 51.5227 57.1928 51.32C57.0755 51.1067 56.9155 51 56.7128 51C56.4248 51 56.1901 51.1707 56.0088 51.512C55.8275 51.8427 55.7368 52.3173 55.7368 52.936Z" fill="white"/>
<defs>
<linearGradient id="paint0_linear_386_876" x1="83.1412" y1="26.7715" x2="83.1412" y2="32.2107" gradientUnits="userSpaceOnUse">
<stop stop-color="#FFB900"/>
</linearGradient>
<linearGradient id="paint1_linear_386_876" x1="83.1434" y1="28.1313" x2="83.1434" y2="27.1313" gradientUnits="userSpaceOnUse">
<stop stop-color="#FFB900"/>
</linearGradient>
<linearGradient id="paint2_linear_386_876" x1="35.3824" y1="26.7715" x2="35.3824" y2="32.2107" gradientUnits="userSpaceOnUse">
<stop stop-color="#FFB900"/>
</linearGradient>
<linearGradient id="paint3_linear_386_876" x1="35.3846" y1="28.1313" x2="35.3846" y2="27.1313" gradientUnits="userSpaceOnUse">
<stop stop-color="#FFB900"/>
</linearGradient>
<linearGradient id="paint4_linear_386_876" x1="83.1412" y1="26.7715" x2="83.1412" y2="32.2107" gradientUnits="userSpaceOnUse">
<stop stop-color="#FFB900"/>
</linearGradient>
<linearGradient id="paint5_linear_386_876" x1="35.3824" y1="26.7715" x2="35.3824" y2="32.2107" gradientUnits="userSpaceOnUse">
<stop stop-color="#FFB900"/>
</linearGradient>
<linearGradient id="paint6_linear_386_876" x1="5.57439" y1="0" x2="5.57439" y2="5.48459" gradientUnits="userSpaceOnUse">
<stop stop-color="#FFB900"/>
</linearGradient>
<linearGradient id="paint7_linear_386_876" x1="5.48458" y1="0" x2="5.48458" y2="5.57439" gradientUnits="userSpaceOnUse">
<stop stop-color="#FFB900"/>
</linearGradient>
<linearGradient id="paint8_linear_386_876" x1="67.5114" y1="47.1683" x2="67.5114" y2="52.787" gradientUnits="userSpaceOnUse">
<stop stop-color="#FFB900"/>
</linearGradient>
<linearGradient id="paint9_linear_386_876" x1="67.5114" y1="0.935699" x2="67.5114" y2="6.55445" gradientUnits="userSpaceOnUse">
<stop stop-color="#FFB900"/>
</linearGradient>
<linearGradient id="paint10_linear_386_876" x1="5.48458" y1="0" x2="5.48458" y2="5.57439" gradientUnits="userSpaceOnUse">
<stop stop-color="#FFB900"/>
</linearGradient>
<linearGradient id="paint11_linear_386_876" x1="5.48459" y1="0" x2="5.48459" y2="5.57439" gradientUnits="userSpaceOnUse">
<stop stop-color="#FFB900"/>
</linearGradient>
<linearGradient id="paint12_linear_386_876" x1="5.57439" y1="0" x2="5.57439" y2="5.48458" gradientUnits="userSpaceOnUse">
<stop stop-color="#FFB900"/>
</linearGradient>
<linearGradient id="paint13_linear_386_876" x1="5.57439" y1="0" x2="5.57439" y2="5.48459" gradientUnits="userSpaceOnUse">
<stop stop-color="#FFB900"/>
</linearGradient>
<linearGradient id="paint14_linear_386_876" x1="59.2598" y1="15.8933" x2="59.2598" y2="43.089" gradientUnits="userSpaceOnUse">
<stop stop-color="#FFB900"/>
</linearGradient>
<clipPath id="clip0_386_876">
<rect x="77.5225" y="26.7715" width="11.2375" height="5.43913" rx="2.71956" fill="white"/>
</clipPath>
<clipPath id="clip1_386_876">
<rect x="29.7637" y="26.7715" width="11.2375" height="5.43913" rx="2.71956" fill="white"/>
</clipPath>
<clipPath id="clip2_386_876">
<rect x="62.0723" y="47.1683" width="10.8783" height="5.61875" rx="2.80938" transform="rotate(90 62.0723 47.1683)" fill="white"/>
</clipPath>
<clipPath id="clip3_386_876">
<rect x="62.0723" y="0.935699" width="10.8783" height="5.61875" rx="2.80938" transform="rotate(90 62.0723 0.935699)" fill="white"/>
</clipPath>
<clipPath id="clip4_386_876">
<rect width="72.5" height="70.1823" fill="white" transform="translate(7.36816 6.32346)"/>
</clipPath>
</defs>
</svg>